<svg width="51" height="50" viewBox="0 0 51 50" fill="none" xmlns="http://www.w3.org/2000/svg">
<path d="M7.12275 0.00289801L12.9911 0L12.9986 3.02769L17.1445 3.02461L17.1526 0.023248L23.1114 0.0117185L23.1313 3.01547L27.3541 2.99815L27.3588 0.0166959L33.2501 0.0143646L33.2724 3.01894L37.3069 3.01194L37.3107 0.0260835L43.2409 0.0303044L43.2476 3.02492L46.3259 3.0219L46.3371 4.73414L48.3072 4.72709L48.3077 38.148L48.337 48.1648L46.3776 48.1655L46.3759 50L3.9952 49.9909L3.99167 48.1563L2.0293 48.1566L2 4.7543L3.98612 4.75443L3.99406 3.02284L7.11072 3.02379L7.12275 0.00289801Z" fill="#002050"/>
<path d="M9.03003 1.94944L11.1213 1.94629L11.1061 3.71184L9.04017 3.7153L9.03003 1.94944Z" fill="white"/>
<path d="M29.2554 1.94782L31.3405 1.94385L31.3325 3.75696L29.2861 3.76219L29.2568 3.71538L29.2554 1.94782Z" fill="white"/>
<path d="M19.0596 1.95187L21.2391 1.95117L21.228 3.74671L19.0625 3.74658L19.0596 1.95187Z" fill="white"/>
<path d="M39.2292 1.95021L41.3407 1.94971L41.3326 3.8097L39.2321 3.81291L39.2292 1.95021Z" fill="white"/>
<path d="M33.2922 4.77832L37.2834 4.78223L37.2873 5.9883L33.2995 5.99422L33.2922 4.77832Z" fill="#4063A0"/>
<path d="M13.022 4.78174L17.1519 4.78791L17.1521 5.98813L13.0228 5.99216L13.022 4.78174Z" fill="#4063A0"/>
<path d="M23.1479 4.77925L27.3287 4.7749L27.3308 5.98778L23.1638 5.99207L23.1479 4.77925Z" fill="#4063A0"/>
<path d="M39.2323 3.81278L41.3328 3.80957L41.3198 5.82505L41.3161 7.99294L39.2307 7.99451L39.2323 5.82833V3.81278Z" fill="#FABB1E"/>
<path d="M29.2567 3.71533L29.286 3.76214L31.3324 3.75691L31.3271 5.66888L31.3273 8.0111L29.2527 8.00518L29.2567 3.71533Z" fill="#FABB1E"/>
<path d="M9.04028 3.71538L11.1062 3.71191L11.1041 5.67416L11.1069 8.00472L9.05125 8.00232L9.0481 5.67365L9.04028 3.71538Z" fill="#FABB1E"/>
<path d="M19.0625 3.74658L21.2281 3.74671L21.2144 5.67663L21.2132 8.0053L19.0723 8.00328L19.0691 5.6772L19.0625 3.74658Z" fill="#FABB1E"/>
<path d="M33.2996 5.9942L37.2873 5.98828L37.3096 10.0087L33.3043 10.017L33.3007 9.58168L33.2996 5.9942Z" fill="#0040A1"/>
<path d="M43.2666 4.77619L46.3311 4.7583L46.3565 10.0282L43.2559 10.0219L43.2537 9.6475L43.2671 5.99909L43.2666 4.77619Z" fill="#0040A1"/>
<path d="M43.2666 4.77619L46.331 4.7583L46.3245 5.98939L43.2671 5.99909L43.2666 4.77619Z" fill="#4063A0"/>
<path d="M3.98616 4.75439L7.10861 4.7784L7.11076 5.99512L7.11447 9.3154L7.11347 9.99427L3.96411 10.0005L3.98616 4.75439Z" fill="#0040A1"/>
<path d="M4.00701 4.77876L7.10848 4.77832L7.11062 5.99504L4.00537 5.99378L4.00701 4.77876Z" fill="#4063A0"/>
<path d="M13.0227 5.99231L17.152 5.98828L17.1517 10.0006L12.9983 10.0068L13.0227 5.99231Z" fill="#0040A1"/>
<path d="M23.1375 10.0156L23.1479 4.7793L23.1638 5.99211L27.3308 5.98783L27.3393 9.74183L27.339 9.98679L23.1375 10.0156Z" fill="#0040A1"/>
<path d="M5.45557 46.3705L45.0645 46.3398L45.0561 48.0753L5.45702 48.0774L5.45557 46.3705Z" fill="#A6AFB4"/>
<path d="M46.3041 13.1333L46.3336 16.4037L46.3527 44.9777L46.3522 46.3443L45.0644 46.34L5.4554 46.3706L4.01225 46.3701V45.0152L4.00513 13.1606L46.3041 13.1333Z" fill="white"/>
<path d="M7.04205 15.0902L43.2503 15.0864L43.2605 44.9842L43.2123 45.1634C42.8001 45.1957 42.377 45.1756 41.9635 45.1739C41.3117 45.1713 40.66 45.1711 40.0082 45.1708C37.8334 45.17 35.6585 45.171 33.4837 45.1712C26.6178 45.1718 19.7519 45.1715 12.8861 45.1715C12.2178 45.1715 7.19288 45.2206 7.05055 45.136L7.03442 45.0121L7.04205 15.0902Z" fill="#002050"/>
<path d="M9.02245 16.9707L41.3694 17.0064L41.365 22.0505L39.2953 22.047L37.2789 22.0376L35.2948 22.0487L33.2554 22.0432L31.2803 22.0475L9.01709 22.0393L9.02245 16.9707Z" fill="white"/>
<path d="M16.1439 18.1016L18.0989 18.0991L18.102 20.0619L16.1409 20.058L16.1439 18.1016Z" fill="#002050"/>
<path d="M12.0906 18.0938L14.0917 18.0943L14.0911 20.0673L12.0864 20.0629L12.0906 18.0938Z" fill="#002050"/>
<path d="M41.365 22.0505L41.3592 43.3342L9.01986 43.286L9.02282 37.266L9.01709 22.0393L31.2803 22.0474L33.2554 22.0431L35.2948 22.0486L37.2789 22.0376L39.2953 22.047L41.365 22.0505Z" fill="#FABB1E"/>
<path d="M17.1511 31.1879L19.1383 31.1851L19.132 33.1495L17.1572 33.1461L17.1511 31.1879Z" fill="#0040A1"/>
<path d="M26.1899 26.1836L28.2083 26.1908L28.2025 28.144L26.189 28.1412L26.1899 26.1836Z" fill="#0040A1"/>
<path d="M35.2568 39.3134L37.2773 39.3086L37.275 41.2499L35.2583 41.2579L35.2568 39.3134Z" fill="white"/>
<path d="M22.1597 26.1737L24.1923 26.1689L24.1825 28.1281L22.1633 28.1324L22.1597 26.1737Z" fill="#0040A1"/>
<path d="M31.262 39.2819L33.2883 39.2808L33.2854 41.2616L31.2625 41.2652L31.262 39.2819Z" fill="white"/>
<path d="M35.2383 35.2188L37.2814 35.2183L37.2783 37.2297L35.2439 37.2336L35.2383 35.2188Z" fill="white"/>
<path d="M35.2456 31.1763L37.2838 31.183L37.2801 33.1838L35.2556 33.1913L35.2456 31.1763Z" fill="white"/>
<path d="M31.2248 31.183L33.2886 31.1797L33.2891 32.8414L33.2848 33.1733L31.2104 33.1774L31.2248 31.183Z" fill="white"/>
<path d="M31.2803 22.0473L33.2554 22.043L33.2494 24.1595L31.2895 24.1521L31.2803 22.0473Z" fill="#0040A1"/>
<path d="M31.2283 35.2201L33.3011 35.2197L33.2976 37.2227L31.2312 37.2179L31.2283 35.2201Z" fill="white"/>
<path d="M22.1289 39.25L24.2146 39.2504L24.2141 41.2385L22.1296 41.2412L22.1289 39.25Z" fill="white"/>
<path d="M35.2947 22.0486L37.2788 22.0376L37.2708 24.1665L35.2971 24.1599L35.2947 22.0486Z" fill="#0040A1"/>
<path d="M22.1273 35.2213L24.2087 35.2207L24.2095 37.2362L22.1267 37.2344L22.1273 35.2213Z" fill="white"/>
<path d="M13.0869 35.2195L15.1686 35.2188L15.1731 36.4633L15.1676 37.2568L13.0918 37.2597L13.0869 35.2195Z" fill="white"/>
<path d="M13.0943 31.1706L15.1882 31.1621L15.1678 33.1932L13.0879 33.2032L13.0943 31.1706Z" fill="white"/>
<path d="M22.1233 31.1543L24.235 31.1664L24.2237 33.1848L22.1276 33.1957L22.1233 31.1543Z" fill="white"/>
<path d="M13.0862 39.1876L15.1851 39.187L15.1836 41.2587L13.0918 41.2632L13.0862 39.1876Z" fill="white"/>
<path d="M17.124 35.2288L20.2071 35.2266L20.2018 37.2344L17.1294 37.2372L17.124 35.2288Z" fill="white"/>
<path d="M17.1174 39.2492L20.2069 39.2485L20.205 41.252L17.1186 41.266L17.1174 39.2492Z" fill="white"/>
<path d="M26.1503 31.1793L29.3037 31.1753L29.2841 33.1958L26.1384 33.19L26.1503 31.1793Z" fill="white"/>
<path d="M26.1628 39.2734L29.3175 39.2766L29.3184 41.2732L26.1643 41.2704L26.1628 39.2734Z" fill="white"/>
<path d="M26.1575 35.2188L29.3136 35.2191L29.3132 37.2343L26.1595 37.234L26.1575 35.2188Z" fill="white"/>
<path d="M35.2617 26.125L37.2838 26.1266L37.2808 29.3777L35.2512 29.3844L35.2617 26.125Z" fill="white"/>
<path d="M32.8535 26.1308L33.3042 26.1226L33.2827 29.3664L30.7358 29.372L30.252 29.3759L30.2536 26.1405L32.8535 26.1308Z" fill="white"/>
</svg>
