<svg width="150" height="150" viewBox="0 0 150 150" fill="none" xmlns="http://www.w3.org/2000/svg">
<mask id="mask0_5_284" style="mask-type:alpha" maskUnits="userSpaceOnUse" x="0" y="0" width="150" height="150">
<path d="M142.875 42.8438H135.703V28.5469H128.578V21.4219H121.406V14.2969H107.156V7.125H92.8594V0H57.1406V7.125H42.8438V14.2969H28.5469V21.4219H21.4219V28.5469H14.2969V42.8438H7.125V57.1406H0V92.8594H7.125V107.156H14.2969V121.406H21.4219V128.578H28.5469V135.703H42.8438V142.875H57.1406V150H92.8594V142.875H107.156V135.703H121.406V128.578H128.578V121.406H135.703V107.156H142.875V92.8594H150V57.1406H142.875V42.8438Z" fill="#002050"/>
</mask>
<g mask="url(#mask0_5_284)">
<mask id="mask1_5_284" style="mask-type:alpha" maskUnits="userSpaceOnUse" x="0" y="0" width="150" height="150">
<path d="M142.875 42.8438H135.703V28.5469H128.578V21.4219H121.406V14.2969H107.156V7.125H92.8594V0H57.1406V7.125H42.8438V14.2969H28.5469V21.4219H21.4219V28.5469H14.2969V42.8438H7.125V57.1406H0V92.8594H7.125V107.156H14.2969V121.406H21.4219V128.578H28.5469V135.703H42.8438V142.875H57.1406V150H92.8594V142.875H107.156V135.703H121.406V128.578H128.578V121.406H135.703V107.156H142.875V92.8594H150V57.1406H142.875V42.8438Z" fill="#002050"/>
</mask>
<g mask="url(#mask1_5_284)">
<path d="M142.875 42.8438H135.703V28.5469H128.578V21.4219H121.406V14.2969H107.156V7.125H92.8594V0H57.1406V7.125H42.8438V14.2969H28.5469V21.4219H21.4219V28.5469H14.2969V42.8438H7.125V57.1406H0V92.8594H7.125V107.156H14.2969V121.406H21.4219V128.578H28.5469V135.703H42.8438V142.875H57.1406V150H92.8594V142.875H107.156V135.703H121.406V128.578H128.578V121.406H135.703V107.156H142.875V92.8594H150V57.1406H142.875V42.8438Z" fill="#002050"/>
<g opacity="0.6" filter="url(#filter0_f_5_284)">
<path d="M76.025 79.0223C88.4921 96.8767 99.8232 115.438 110.792 134.259C109.496 134.161 109.001 133.16 108.43 132.326C106.186 129.05 103.97 125.752 101.781 122.433C101.147 121.474 100.722 120.375 100.109 119.394C97.2797 114.85 94.4085 110.334 91.5653 105.797C88.1088 100.287 84.6593 94.7692 81.2098 89.2518C79.9136 87.1793 78.6174 85.1138 76.9588 83.1813C78.2411 88.4046 79.5164 93.6349 80.7986 98.8582C80.6314 98.9002 80.4571 98.9492 80.2899 98.9912C77.3839 93.7539 77.3282 87.5784 74.9937 82.1311C74.694 103.094 75.9902 124.029 75.6139 144.986C74.5128 140.07 74.5477 135.043 74.1226 130.072C73.6975 125.031 73.7323 119.947 73.586 114.878C73.4327 109.886 73.3212 104.894 73.1539 99.8945C72.9867 94.9022 73.9274 89.889 73.147 84.6447C71.6347 90.064 70.2061 95.1823 68.7566 100.294C68.7148 100.434 68.4291 100.497 68.0807 100.7C67.6277 99.6214 67.9274 98.7042 68.1852 97.7519C69.4466 93.1518 70.687 88.5447 71.9274 83.9305C72.0947 83.3214 72.1713 82.6842 71.8926 81.893C62.2269 100.462 52.5544 119.023 42.8887 137.592C42.7284 137.543 42.5682 137.494 42.4149 137.445C42.4845 137.032 42.4776 136.584 42.6448 136.212C43.8574 133.51 45.0769 130.814 46.3452 128.132C47.6762 125.325 49.0351 122.531 50.415 119.744C53.293 113.912 56.1363 108.058 59.105 102.275C61.0214 98.5431 63.1538 94.9302 65.1678 91.2543C66.8612 88.1666 68.5267 85.0648 70.2061 81.97C70.0737 81.865 69.9413 81.767 69.8089 81.6619C68.4779 82.8802 67.1747 84.1336 65.8158 85.3098C62.429 88.2366 59.0283 91.1493 55.5927 94.02C54.861 94.6292 53.962 95.0353 53.1397 95.5324C53.0213 95.3643 52.9028 95.1963 52.7913 95.0283C55.3 92.9487 57.8366 90.9112 60.2966 88.7757C62.7287 86.6682 65.0772 84.4626 67.3141 82.0961C50.0108 92.1225 33.9269 104.039 16.533 113.996C16.8257 113.674 17.0696 113.282 17.4111 113.037C21.7944 109.872 26.1498 106.658 30.5959 103.584C36.5263 99.4814 42.5054 95.4414 48.5264 91.4784C51.962 89.2168 55.5439 87.1863 59.0353 85.0088C62.6869 82.7262 66.3037 80.3946 69.9344 78.0841C69.8716 77.958 69.802 77.839 69.7392 77.713C66.7009 78.7772 63.6974 79.9465 60.6172 80.8708C57.6276 81.774 54.7007 82.9573 51.5509 83.3494C52.0317 82.1521 53.1119 81.935 54.0666 81.6129C57.2792 80.5347 60.5057 79.5264 63.7322 78.4762C64.2479 78.3081 64.7566 78.0981 65.2305 77.727C45.2929 76.9498 25.3972 78.3641 5.00671 77.888C5.69662 77.5029 5.9893 77.2229 6.30987 77.1878C7.8848 77.0198 9.4667 76.8588 11.0486 76.7887C17.3065 76.5227 23.5714 76.2846 29.8293 76.0606C33.2161 75.9415 36.6029 75.8435 39.9828 75.7805C44.5961 75.6965 49.2024 75.5984 53.8157 75.6054C56.6938 75.6054 59.5788 75.7945 62.4569 75.8715C63.5371 75.8995 64.6172 75.8715 65.7183 75.7105C60.2409 72.7207 53.8296 73.3299 47.8156 71.1804C50.1432 70.3191 55.1676 71.1243 65.7392 73.785C48.0595 64.2977 29.453 56.6798 11.2995 47.1084C14.0033 47.2204 22.0383 50.6583 31.021 55.0414C37.2371 58.0731 43.6135 60.7688 49.8993 63.6605C56.2199 66.5732 62.0318 70.5222 68.6521 72.8818C64.4221 68.4847 59.2513 65.1869 54.7495 61.1259C54.8192 60.9928 54.8889 60.8598 54.9586 60.7268C55.2513 60.7618 55.6206 60.6918 55.8297 60.8458C57.7739 62.2181 59.7461 63.5485 61.5998 65.0398C64.3176 67.2314 66.9378 69.542 69.6696 71.8525C59.1189 53.718 47.1815 36.5568 36.8887 18.3733C43.3974 26.3763 48.7843 35.1564 54.3453 43.8036C59.8785 52.4087 65.1608 61.1819 70.7358 69.808C69.9135 64.2486 67.5371 59.0604 67.0354 52.9128C67.6695 53.536 68.0737 53.753 68.1713 54.0611C68.5546 55.3004 68.8751 56.5677 69.1678 57.8281C70.2061 62.3372 71.2236 66.8533 72.2619 71.3624C72.3525 71.7685 72.5407 72.1466 72.8682 73.0288C72.8682 70.9773 72.9379 69.4439 72.8473 67.9176C72.7358 65.9711 72.3943 64.0316 72.3246 62.0851C72.0738 55.2094 71.8856 48.3337 71.6905 41.458C71.572 37.1869 71.4536 32.9159 71.4117 28.6448C71.3978 26.6984 71.6835 24.7449 71.6556 22.7914C71.5999 18.3733 71.4257 13.9622 71.3142 9.54411C71.3002 8.92096 71.3769 8.29781 71.4257 7.4646C72.5198 7.96872 72.5546 8.77392 72.6034 9.5021C72.7985 12.2468 73.0355 14.9845 73.0982 17.7291C73.2863 26.9154 73.3978 36.1087 73.5581 45.302C73.6905 52.9058 73.8438 60.5027 73.9902 68.1066C73.9971 68.5127 74.0459 68.9188 74.4501 69.3879C75.6278 64.6898 76.8055 59.9916 77.9832 55.2934C78.1644 55.3144 78.3456 55.3354 78.5268 55.3564C78.938 56.2387 78.6732 57.1629 78.4502 58.0871C77.4397 62.2321 76.4153 66.3772 75.4048 70.5222C75.3421 70.7883 75.3282 71.0683 75.4675 71.4114C84.4363 52.1707 94.6246 33.5951 104.813 14.7394C105.635 15.8457 105.092 16.6649 104.785 17.351C103.545 20.1167 102.283 22.8824 100.876 25.5641C97.5584 31.9076 94.1089 38.1742 90.7987 44.5248C87.8579 50.1682 85.0844 55.8886 82.1645 61.539C80.4781 64.8088 78.6522 68.0156 76.8961 71.2504L77.2237 71.5935C77.8787 71.0403 78.5756 70.5222 79.1819 69.913C81.2237 67.8685 83.2237 65.775 85.2586 63.7235C85.7813 63.1914 86.3736 62.7293 87.1402 62.4492C84.5966 66.0061 81.614 69.1289 78.5547 72.2726C81.9206 69.9691 85.2865 67.6515 88.6663 65.3689C92.1298 63.0233 95.6072 60.6988 99.0846 58.3672C102.562 56.0356 105.991 53.627 109.517 51.3865C113.05 49.1459 116.708 47.1154 120.263 44.9029C123.782 42.7113 127.022 40.0577 130.953 38.0202C131.05 39.3575 130.228 39.8056 129.608 40.2677C127.468 41.8641 125.329 43.4605 123.099 44.9099C117.224 48.7188 111.273 52.3947 105.412 56.2177C99.9766 59.7605 94.6315 63.4574 89.2099 67.0283C86.6175 68.7368 83.9415 70.3121 81.3143 71.9575C80.6523 72.3707 80.0251 72.8398 79.4467 73.4559C85.2168 72.8048 90.2273 69.598 96.0253 68.5127C95.9556 69.4509 95.2727 69.556 94.7291 69.738C91.6559 70.7603 88.5618 71.7405 85.4886 72.7557C83.2516 73.4979 81.0216 74.2751 78.4502 75.1433C79.4188 75.8295 80.2063 75.6475 80.9101 75.6195C86.2342 75.4164 91.5583 75.1083 96.8825 74.9613C104.952 74.7442 113.022 74.5832 121.092 74.4922C127.433 74.4222 133.775 74.4922 140.123 74.5062C140.806 74.5062 141.489 74.5762 142.486 74.6322C141.726 75.7595 140.855 75.8015 140.061 75.8225C134.737 75.9835 129.406 76.1236 124.081 76.2356C116.806 76.3896 109.524 76.5297 102.248 76.6347C97.8511 76.6977 93.4538 76.6837 89.0496 76.7047C86.9659 76.7117 84.8823 76.7047 82.7638 76.8518C84.0669 77.797 85.5861 78.1121 87.0914 78.4622C90.1088 79.1553 93.1333 79.8135 96.1438 80.5417C96.8406 80.7097 97.4887 81.1018 98.0741 81.6339C94.4085 81.739 91.0426 80.4226 87.5722 79.7225C84.0739 79.0153 80.6871 77.804 77.1958 76.9288C78.4571 78.0841 80.0251 78.6722 81.5512 79.3374C84.4572 80.6047 87.3771 81.823 90.2621 83.1323C96.3668 85.891 102.492 88.6287 108.548 91.4994C112.388 93.3198 116.102 95.4134 119.907 97.3108C123.649 99.1803 127.433 100.959 131.203 102.772C132.437 103.367 133.684 103.934 134.911 104.551C135.266 104.733 135.538 105.055 136.061 105.489C134.897 106.098 134.019 105.594 133.28 105.258C128.367 103.024 123.489 100.714 118.611 98.4101C113.782 96.1345 108.959 93.845 104.151 91.5344C98.3041 88.7267 92.4712 85.891 86.6245 83.0693C84.4433 82.019 82.2481 80.9828 79.9554 80.0726C83.2098 84.0845 87.4259 87.2003 90.3179 91.6744C89.0496 92.1715 88.4851 91.3243 87.8858 90.6802C85.7325 88.3486 83.5931 86.003 81.4606 83.6504C79.8578 81.886 78.2759 80.1076 76.6871 78.3291C76.4571 78.5532 76.2341 78.7702 76.0041 78.9943L76.025 79.0223Z" fill="#2496FF"/>
<path d="M64.4783 114.963C64.3598 114.375 64.102 113.87 64.2065 113.464C64.8686 111.021 64.9661 108.381 66.4435 105.938C67.1125 108.136 65.9487 113.401 64.4783 114.963Z" fill="#2496FF"/>
<path d="M43.8226 103.556C44.5125 102.044 48.1363 98.7251 49.7182 98.158C48.8401 100.588 45.8854 103.29 43.8226 103.556Z" fill="#2496FF"/>
<path d="M47.8923 84.7154C45.0978 86.3748 42.6866 87.7262 39.2859 87.9082C40.5751 86.2908 42.1361 86.2208 43.4183 85.6817C44.6727 85.1565 45.8853 84.2813 47.8923 84.7154Z" fill="#2496FF"/>
<path d="M108.611 107.961C106.325 107.506 104.513 105.748 103.315 102.99C104.764 103.277 107.621 105.895 108.611 107.961Z" fill="#2496FF"/>
<path d="M83.3286 110.132C81.7816 108.36 80.9871 105.616 81.2032 103.214C82.4924 104.278 83.5447 107.562 83.3286 110.132Z" fill="#2496FF"/>
<path d="M113.691 85.5479C116.144 85.1138 118.284 86.0941 120.73 87.0113C118.869 87.9145 115.935 87.3054 113.691 85.5479Z" fill="#2496FF"/>
<path d="M102.318 82.6709C104.743 82.8669 107.315 82.7549 109.189 84.7994C106.764 84.5754 104.367 84.2883 102.318 82.6709Z" fill="#2496FF"/>
<path d="M65.3281 44.7498C66.6103 46.2411 67.1748 48.5377 66.896 51.1003C65.4883 49.728 64.7288 46.6262 65.3281 44.7498Z" fill="#2496FF"/>
<path d="M31.7179 65.9929C29.3695 66.1609 27.1046 65.9578 25.1813 64.4525C27.5855 64.0044 29.6831 64.8306 31.7179 65.9929Z" fill="#2496FF"/>
<path d="M43.0981 69.5214C40.8751 69.5214 38.8054 69.0033 36.9238 67.799C39.328 67.1338 41.2932 68.037 43.0981 69.5214Z" fill="#2496FF"/>
<path d="M86.5967 120.935C85.2796 119.086 84.7848 117.021 84.6942 114.668C86.2622 115.935 87.0984 118.54 86.5967 120.935Z" fill="#2496FF"/>
<path d="M94.3325 94.8401C95.7889 96.1494 97.2384 97.4657 98.89 98.9501C96.89 99.2022 94.9387 97.5708 93.9771 95.2182C94.0955 95.0922 94.214 94.9661 94.3325 94.8401Z" fill="#2496FF"/>
<path d="M114.897 61.4206C113.141 62.7369 111.064 63.227 108.82 63.7311C109.677 62.4078 112.235 61.3855 114.897 61.4206Z" fill="#2496FF"/>
<path d="M99.0294 48.2153C98.2698 49.9168 96.9945 51.1281 95.4962 52.1223C96.1025 50.3018 97.2175 48.9365 99.0294 48.2153Z" fill="#2496FF"/>
<path d="M107.099 64.4027C104.513 65.964 101.893 66.2581 99.4818 67.1333C100.834 65.838 104.98 64.3046 107.099 64.4027Z" fill="#2496FF"/>
<path d="M61.8091 125.641C61.3352 123.666 61.6349 122.455 62.952 120.551C63.5582 121.846 63.1401 123.897 61.8091 125.641Z" fill="#2496FF"/>
<path d="M80.2414 45.946C80.3669 47.9906 79.9906 49.916 78.9313 51.6735C78.778 49.629 79.1055 47.6965 80.2414 45.946Z" fill="#2496FF"/>
<path d="M45.2234 51.8276C43.5648 51.2814 42.0944 50.5322 41.1188 48.4387C43.307 49.0899 44.5613 50.1051 45.2234 51.8276Z" fill="#2496FF"/>
<path d="M35.6206 89.3506C33.8157 90.891 32.2338 91.7382 30.199 92.0252C31.1676 90.5269 32.8541 89.6657 35.6206 89.3506Z" fill="#2496FF"/>
<path d="M88.3533 59.7683C89.6146 57.8638 91.2105 56.2884 93.0084 54.9231C93.1478 55.0561 93.2871 55.1892 93.4265 55.3292C91.8794 56.9256 90.3254 58.522 88.7784 60.1114C88.639 59.9993 88.4996 59.8803 88.3533 59.7683Z" fill="#2496FF"/>
<path d="M48.7567 54.53C50.4501 55.0131 51.37 56.1124 52.1435 57.5758C50.5407 57.4988 49.5372 56.5815 48.7567 54.53Z" fill="#2496FF"/>
<path d="M38.8959 107.33C38.1642 108.913 37.0631 110.026 35.4742 110.565C35.9969 108.78 37.4603 108.059 38.8959 107.33Z" fill="#2496FF"/>
<path d="M60.1783 134.365C59.9344 132.684 60.0877 131.123 61.1818 129.373C61.6487 131.473 60.9379 132.936 60.1783 134.365Z" fill="#2496FF"/>
<path d="M21.0626 95.9954C22.0522 94.7911 23.1672 93.9229 25 94.196C23.871 95.5053 22.5679 95.9744 21.0626 95.9954Z" fill="#2496FF"/>
<path d="M63.3704 40.2334C63.1613 38.9871 62.9453 37.7337 62.7362 36.4874C62.9313 36.4454 63.1265 36.4104 63.3216 36.3684C64.4157 37.4537 63.9766 38.875 63.9488 40.2054C63.7536 40.2124 63.5655 40.2194 63.3704 40.2264V40.2334Z" fill="#2496FF"/>
<path d="M120.653 59.0393C119.364 60.1596 118.918 60.3276 117.245 60.2856C118.312 59.1233 118.709 58.9763 120.653 59.0393Z" fill="#2496FF"/>
<path d="M114.604 113.864C113.336 113.689 112.855 112.779 112.423 111.735C114.089 111.714 114.576 112.19 114.604 113.864Z" fill="#2496FF"/>
<path d="M81.858 37.8101C82.3528 39.1124 81.6838 40.1416 81.3074 41.2269C80.9381 39.6585 81.0844 38.8463 81.858 37.8101Z" fill="#2496FF"/>
<path d="M104.207 41.3116C104.841 40.6395 105.475 39.9743 106.43 38.9661C106.506 40.8845 105.468 41.2346 104.639 41.7598C104.492 41.6057 104.346 41.4587 104.207 41.3046V41.3116Z" fill="#2496FF"/>
<path d="M88.7365 128.189C87.8306 127.243 87.5866 126.431 87.9072 125.248C88.7783 126.074 88.9734 126.9 88.7365 128.189Z" fill="#2496FF"/>
<path d="M124.695 87.9989C125.371 88.293 126.04 88.5801 126.716 88.8742L126.507 89.4273C125.81 89.1962 125.106 88.9652 124.409 88.7341C124.507 88.4891 124.604 88.244 124.702 87.9919L124.695 87.9989Z" fill="#2496FF"/>
<path d="M83.1263 31.6214C82.9103 32.5036 82.6943 33.3858 82.4782 34.275C82.304 34.233 82.1298 34.184 81.9556 34.142C82.1855 33.2598 82.4085 32.3776 82.6385 31.4954C82.7988 31.5374 82.966 31.5794 83.1263 31.6214Z" fill="#2496FF"/>
<path d="M131.824 91.2754C131.218 90.9673 130.618 90.6522 129.615 90.1411C131.085 89.693 131.559 90.2741 132.082 90.7642C131.998 90.9393 131.908 91.1073 131.824 91.2824V91.2754Z" fill="#2496FF"/>
<path d="M101.147 45.6665C100.987 44.6932 101.454 44.2451 102.437 44.0491C102.534 45.0853 101.844 45.3864 101.147 45.6665Z" fill="#2496FF"/>
<path d="M119.385 119.066C118.158 119.304 117.893 118.772 117.768 118.002C118.855 117.582 118.89 118.401 119.385 119.066Z" fill="#2496FF"/>
<path d="M59.851 24.668C59.9486 25.2561 60.0462 25.8443 60.1855 26.6705C59.6466 26.059 59.5351 25.3915 59.851 24.668Z" fill="#2496FF"/>
<path d="M18.4567 63.2895C17.9201 63.1845 17.3835 63.0795 16.8469 62.9674C16.8887 62.7924 16.9236 62.6103 16.9654 62.4353L18.5543 62.8414C18.5194 62.9884 18.4846 63.1425 18.4567 63.2895Z" fill="#2496FF"/>
<path d="M83.3282 26.6915C83.4607 26.3064 83.5931 25.9283 83.7185 25.5432C83.8579 25.5782 83.9972 25.6062 84.1366 25.6412L83.9554 26.8665C83.7464 26.8105 83.5373 26.7475 83.3282 26.6915Z" fill="#2496FF"/>
<path d="M12.6514 62.1488C12.0591 62.0857 11.4667 62.0227 10.8813 61.9597C10.9023 61.7777 10.9232 61.5956 10.9441 61.4136C11.5294 61.4906 12.1218 61.5676 12.7072 61.6376C12.6862 61.8057 12.6723 61.9807 12.6514 62.1488Z" fill="#2496FF"/>
<path d="M61.6067 32.3556C61.4395 32.0335 61.2653 31.7184 61.098 31.3963C61.2165 31.3333 61.335 31.2703 61.4534 31.2073C61.6207 31.5294 61.781 31.8514 61.9482 32.1735L61.5998 32.3556H61.6067Z" fill="#2496FF"/>
<path d="M37.4601 44.5886C37.7876 44.9247 38.1152 45.2608 38.4497 45.5969L38.0873 45.996C37.7389 45.6949 37.3904 45.3938 37.049 45.0927C37.1883 44.9247 37.3277 44.7567 37.4671 44.5886H37.4601Z" fill="#2496FF"/>
<path d="M126.465 57.1423C126.04 57.3173 125.615 57.4853 125.19 57.6604L125.023 57.2263C125.448 57.0652 125.88 56.9042 126.305 56.7432L126.458 57.1423H126.465Z" fill="#2496FF"/>
</g>
<g filter="url(#filter1_d_5_284)">
<path d="M131.703 42.8438V46.8438H135.703H138.875V57.1406V61.1406H142.875H146V88.8594H142.875H138.875V92.8594V103.156H135.703H131.703V107.156V117.406H128.578H124.578V121.406V124.578H121.406H117.406V128.578V131.703H107.156H103.156V135.703V138.875H92.8594H88.8594V142.875V146H61.1406V142.875V138.875H57.1406H46.8438V135.703V131.703H42.8438H32.5469V128.578V124.578H28.5469H25.4219V121.406V117.406H21.4219H18.2969V107.156V103.156H14.2969H11.125V92.8594V88.8594H7.125H4V61.1406H7.125H11.125V57.1406V46.8438H14.2969H18.2969V42.8438V32.5469H21.4219H25.4219V28.5469V25.4219H28.5469H32.5469V21.4219V18.2969H42.8438H46.8438V14.2969V11.125H57.1406H61.1406V7.125V4H88.8594V7.125V11.125H92.8594H103.156V14.2969V18.2969H107.156H117.406V21.4219V25.4219H121.406H124.578V28.5469V32.5469H128.578H131.703V42.8438Z" stroke="url(#paint0_linear_5_284)" stroke-width="8"/>
</g>
<path opacity="0.5" d="M45.4774 42.6658H37.0424V51.1008H45.4774V42.6658Z" fill="#0040A1"/>
<path opacity="0.5" d="M45.4774 90.4644H37.0424V98.8994H45.4774V90.4644Z" fill="#0040A1"/>
<path opacity="0.5" d="M121.393 59.5356H112.958V67.9707H121.393V59.5356Z" fill="#0040A1"/>
<path opacity="0.5" d="M112.958 90.4644H104.523V98.8994H112.958V90.4644Z" fill="#0040A1"/>
<path opacity="0.5" d="M87.6526 115.77H79.2175V124.205H87.6526V115.77Z" fill="#0040A1"/>
<g filter="url(#filter2_d_5_284)">
<path d="M80.2069 27.168H69.7932V37.5816H80.2069V27.168Z" fill="url(#paint1_linear_5_284)"/>
<path d="M59.3796 47.9937H48.9659V58.4074H59.3796V47.9937Z" fill="url(#paint2_linear_5_284)"/>
<path d="M69.7932 37.5816H59.3796V47.9952H69.7932V37.5816Z" fill="url(#paint3_linear_5_284)"/>
<path d="M90.6204 37.5816H80.2068V47.9952H90.6204V37.5816Z" fill="url(#paint4_linear_5_284)"/>
<path d="M90.6204 47.9937H101.034V58.4074H90.6204V47.9937Z" fill="url(#paint5_linear_5_284)"/>
<path d="M48.966 58.4088H38.5524V68.8225H48.966V58.4088Z" fill="url(#paint6_linear_5_284)"/>
<path d="M101.034 58.4088H111.448V68.8225H101.034V58.4088Z" fill="url(#paint7_linear_5_284)"/>
<path fill-rule="evenodd" clip-rule="evenodd" d="M80.2067 54.9367H69.793V65.3503H59.3794V75.764H69.793H69.7931H80.2067H80.2067H90.6203V65.3503H80.2067V54.9367ZM69.793 127.832V117.42H59.3794V107.006H69.793H80.2067H90.6203V117.42H80.2067V127.832H69.793ZM80.2067 86.1776H69.7931H69.793H59.3795V75.7654H48.9658V86.1791H59.3794V96.5912H69.793H80.2067H90.6203L90.6203 107.005H101.034V96.5912L90.6203 96.5912V86.1776H80.2067H80.2067Z" fill="url(#paint8_linear_5_284)"/>
</g>
<path d="M80.2069 24.668H69.7932V35.0816H80.2069V24.668Z" fill="#FABB1E"/>
<path d="M59.3796 45.4937H48.9659V55.9074H59.3796V45.4937Z" fill="#FABB1E"/>
<path d="M69.7932 35.0816H59.3796V45.4952H69.7932V35.0816Z" fill="#FABB1E"/>
<path d="M90.6204 35.0816H80.2068V45.4952H90.6204V35.0816Z" fill="#FABB1E"/>
<path d="M90.6204 45.4937H101.034V55.9074H90.6204V45.4937Z" fill="#FABB1E"/>
<path d="M48.966 55.9088H38.5524V66.3225H48.966V55.9088Z" fill="#FABB1E"/>
<path d="M101.034 55.9088H111.448V66.3225H101.034V55.9088Z" fill="#FABB1E"/>
<path fill-rule="evenodd" clip-rule="evenodd" d="M80.2067 52.4367H69.793V62.8503H59.3794V73.264H69.793H69.7931H80.2067H80.2067H90.6203V62.8503H80.2067V52.4367ZM69.793 125.332V114.92H59.3794V104.506H69.793H80.2067H90.6203V114.92H80.2067V125.332H69.793ZM80.2067 83.6776H69.7931H69.793H59.3795V73.2654H48.9658V83.6791H59.3794V94.0912H69.793H80.2067H90.6203L90.6203 104.505H101.034V94.0912L90.6203 94.0912V83.6776H80.2067H80.2067Z" fill="url(#paint9_linear_5_284)"/>
</g>
</g>
<defs>
<filter id="filter0_f_5_284" x="1.00671" y="3.4646" width="145.479" height="145.521" filterUnits="userSpaceOnUse" color-interpolation-filters="sRGB">
<feFlood flood-opacity="0" result="BackgroundImageFix"/>
<feBlend mode="normal" in="SourceGraphic" in2="BackgroundImageFix" result="shape"/>
<feGaussianBlur stdDeviation="2" result="effect1_foregroundBlur_5_284"/>
</filter>
<filter id="filter1_d_5_284" x="-4" y="0" width="158" height="158" filterUnits="userSpaceOnUse" color-interpolation-filters="sRGB">
<feFlood flood-opacity="0" result="BackgroundImageFix"/>
<feColorMatrix in="SourceAlpha" type="matrix" values="0 0 0 0 0 0 0 0 0 0 0 0 0 0 0 0 0 0 127 0" result="hardAlpha"/>
<feOffset dy="4"/>
<feGaussianBlur stdDeviation="2"/>
<feColorMatrix type="matrix" values="0 0 0 0 0 0 0 0 0 0 0 0 0 0 0 0 0 0 0.25 0"/>
<feBlend mode="normal" in2="BackgroundImageFix" result="effect1_dropShadow_5_284"/>
<feBlend mode="normal" in="SourceGraphic" in2="effect1_dropShadow_5_284" result="shape"/>
</filter>
<filter id="filter2_d_5_284" x="38.0524" y="27.168" width="73.8953" height="103.164" filterUnits="userSpaceOnUse" color-interpolation-filters="sRGB">
<feFlood flood-opacity="0" result="BackgroundImageFix"/>
<feColorMatrix in="SourceAlpha" type="matrix" values="0 0 0 0 0 0 0 0 0 0 0 0 0 0 0 0 0 0 127 0" result="hardAlpha"/>
<feOffset dy="2"/>
<feGaussianBlur stdDeviation="0.25"/>
<feComposite in2="hardAlpha" operator="out"/>
<feColorMatrix type="matrix" values="0 0 0 0 0 0 0 0 0 0 0 0 0 0 0 0 0 0 0.55 0"/>
<feBlend mode="normal" in2="BackgroundImageFix" result="effect1_dropShadow_5_284"/>
<feBlend mode="normal" in="SourceGraphic" in2="effect1_dropShadow_5_284" result="shape"/>
</filter>
<linearGradient id="paint0_linear_5_284" x1="75" y1="0" x2="75" y2="150" gradientUnits="userSpaceOnUse">
<stop stop-color="#FABB1E"/>
<stop offset="1" stop-color="#A55921"/>
</linearGradient>
<linearGradient id="paint1_linear_5_284" x1="75" y1="27.168" x2="75" y2="37.5816" gradientUnits="userSpaceOnUse">
<stop stop-color="#D70F0F"/>
<stop offset="1" stop-color="#690505"/>
</linearGradient>
<linearGradient id="paint2_linear_5_284" x1="54.1728" y1="47.9937" x2="54.1728" y2="58.4074" gradientUnits="userSpaceOnUse">
<stop stop-color="#D70F0F"/>
<stop offset="1" stop-color="#690505"/>
</linearGradient>
<linearGradient id="paint3_linear_5_284" x1="64.5864" y1="37.5816" x2="64.5864" y2="47.9952" gradientUnits="userSpaceOnUse">
<stop stop-color="#D70F0F"/>
<stop offset="1" stop-color="#690505"/>
</linearGradient>
<linearGradient id="paint4_linear_5_284" x1="85.4136" y1="37.5816" x2="85.4136" y2="47.9952" gradientUnits="userSpaceOnUse">
<stop stop-color="#D70F0F"/>
<stop offset="1" stop-color="#690505"/>
</linearGradient>
<linearGradient id="paint5_linear_5_284" x1="95.8272" y1="47.9937" x2="95.8272" y2="58.4074" gradientUnits="userSpaceOnUse">
<stop stop-color="#D70F0F"/>
<stop offset="1" stop-color="#690505"/>
</linearGradient>
<linearGradient id="paint6_linear_5_284" x1="43.7592" y1="58.4088" x2="43.7592" y2="68.8225" gradientUnits="userSpaceOnUse">
<stop stop-color="#D70F0F"/>
<stop offset="1" stop-color="#690505"/>
</linearGradient>
<linearGradient id="paint7_linear_5_284" x1="106.241" y1="58.4088" x2="106.241" y2="68.8225" gradientUnits="userSpaceOnUse">
<stop stop-color="#D70F0F"/>
<stop offset="1" stop-color="#690505"/>
</linearGradient>
<linearGradient id="paint8_linear_5_284" x1="74.9999" y1="54.9367" x2="74.9999" y2="127.832" gradientUnits="userSpaceOnUse">
<stop stop-color="#D70F0F"/>
<stop offset="1" stop-color="#690505"/>
</linearGradient>
<linearGradient id="paint9_linear_5_284" x1="74.9999" y1="52.4367" x2="74.9999" y2="125.332" gradientUnits="userSpaceOnUse">
<stop stop-color="#FABB1E"/>
<stop offset="1" stop-color="#A55921"/>
</linearGradient>
</defs>
</svg>
