<svg width="150" height="150" viewBox="0 0 150 150" fill="none" xmlns="http://www.w3.org/2000/svg">
<mask id="mask0_61_19045" style="mask-type:alpha" maskUnits="userSpaceOnUse" x="0" y="0" width="150" height="150">
<path d="M142.875 42.8438H135.703V28.5469H128.578V21.4219H121.406V14.2969H107.156V7.125H92.8594V0H57.1406V7.125H42.8438V14.2969H28.5469V21.4219H21.4219V28.5469H14.2969V42.8438H7.125V57.1406H0V92.8594H7.125V107.156H14.2969V121.406H21.4219V128.578H28.5469V135.703H42.8438V142.875H57.1406V150H92.8594V142.875H107.156V135.703H121.406V128.578H128.578V121.406H135.703V107.156H142.875V92.8594H150V57.1406H142.875V42.8438Z" fill="#002050"/>
</mask>
<g mask="url(#mask0_61_19045)">
<path d="M142.875 42.8438H135.703V28.5469H128.578V21.4219H121.406V14.2969H107.156V7.125H92.8594V0H57.1406V7.125H42.8438V14.2969H28.5469V21.4219H21.4219V28.5469H14.2969V42.8438H7.125V57.1406H0V92.8594H7.125V107.156H14.2969V121.406H21.4219V128.578H28.5469V135.703H42.8438V142.875H57.1406V150H92.8594V142.875H107.156V135.703H121.406V128.578H128.578V121.406H135.703V107.156H142.875V92.8594H150V57.1406H142.875V42.8438Z" fill="#002050"/>
<g opacity="0.6" filter="url(#filter0_f_61_19045)">
<path d="M76.0252 79.0225C88.4922 96.877 99.8234 115.439 110.792 134.259C109.496 134.161 109.001 133.16 108.43 132.327C106.186 129.05 103.97 125.752 101.782 122.433C101.147 121.474 100.722 120.375 100.109 119.395C97.2798 114.85 94.4087 110.334 91.5654 105.797C88.1089 100.287 84.6594 94.7694 81.2099 89.2521C79.9137 87.1796 78.6175 85.114 76.959 83.1816C78.2412 88.4049 79.5165 93.6352 80.7987 98.8584C80.6315 98.9005 80.4573 98.9495 80.29 98.9915C77.3841 93.7542 77.3283 87.5787 74.9938 82.1313C74.6941 103.094 75.9903 124.03 75.614 144.986C74.5129 140.071 74.5478 135.043 74.1227 130.072C73.6976 125.031 73.7324 119.948 73.5861 114.878C73.4328 109.886 73.3213 104.894 73.154 99.8947C72.9868 94.9025 73.9276 89.8892 73.1471 84.6449C71.6349 90.0643 70.2063 95.1825 68.7568 100.294C68.715 100.434 68.4292 100.497 68.0808 100.7C67.6278 99.6216 67.9275 98.7044 68.1853 97.7522C69.4467 93.152 70.6871 88.5449 71.9275 83.9308C72.0948 83.3216 72.1714 82.6844 71.8927 81.8932C62.2271 100.462 52.5545 119.023 42.8889 137.592C42.7286 137.543 42.5683 137.494 42.415 137.445C42.4847 137.032 42.4777 136.584 42.6449 136.213C43.8575 133.51 45.077 130.814 46.3453 128.133C47.6764 125.325 49.0353 122.531 50.4151 119.745C53.2932 113.912 56.1364 108.059 59.1051 102.275C61.0215 98.5434 63.1539 94.9305 65.1679 91.2546C66.8613 88.1668 68.5268 85.065 70.2063 81.9703C70.0739 81.8652 69.9415 81.7672 69.8091 81.6622C68.478 82.8805 67.1749 84.1338 65.816 85.3101C62.4292 88.2368 59.0284 91.1495 55.5928 94.0202C54.8611 94.6294 53.9622 95.0355 53.1399 95.5326C53.0214 95.3646 52.9029 95.1965 52.7914 95.0285C55.3002 92.949 57.8368 90.9115 60.2967 88.776C62.7288 86.6684 65.0773 84.4629 67.3142 82.0963C50.0109 92.1228 33.9271 104.04 16.5331 113.996C16.8258 113.674 17.0697 113.282 17.4112 113.037C21.7945 109.872 26.15 106.658 30.596 103.585C36.5264 99.4816 42.5056 95.4416 48.5266 91.4786C51.9621 89.2171 55.5441 87.1866 59.0354 85.009C62.687 82.7265 66.3038 80.3949 69.9345 78.0843C69.8718 77.9583 69.8021 77.8392 69.7394 77.7132C66.701 78.7775 63.6975 79.9468 60.6173 80.871C57.6277 81.7742 54.7008 82.9575 51.551 83.3496C52.0318 82.1523 53.112 81.9353 54.0667 81.6132C57.2793 80.5349 60.5058 79.5267 63.7323 78.4764C64.248 78.3084 64.7567 78.0983 65.2306 77.7272C45.2931 76.95 25.3973 78.3644 5.00684 77.8883C5.69674 77.5032 5.98943 77.2231 6.30999 77.1881C7.88492 77.02 9.46682 76.859 11.0487 76.789C17.3066 76.5229 23.5715 76.2849 29.8295 76.0608C33.2163 75.9418 36.6031 75.8438 39.9829 75.7807C44.5962 75.6967 49.2025 75.5987 53.8158 75.6057C56.6939 75.6057 59.579 75.7947 62.457 75.8718C63.5372 75.8998 64.6173 75.8718 65.7184 75.7107C60.241 72.721 53.8298 73.3301 47.8157 71.1806C50.1433 70.3194 55.1678 71.1246 65.7393 73.7852C48.0596 64.2979 29.4531 56.68 11.2996 47.1086C14.0035 47.2207 22.0384 50.6585 31.0211 55.0416C37.2372 58.0734 43.6136 60.769 49.8994 63.6607C56.22 66.5735 62.0319 70.5224 68.6522 72.882C64.4222 68.4849 59.2514 65.1871 54.7496 61.1261C54.8193 60.9931 54.889 60.86 54.9587 60.727C55.2514 60.762 55.6207 60.692 55.8298 60.846C57.7741 62.2184 59.7462 63.5487 61.5999 65.0401C64.3177 67.2316 66.9379 69.5422 69.6697 71.8528C59.119 53.7183 47.1816 36.557 36.8888 18.3735C43.3976 26.3765 48.7844 35.1567 54.3454 43.8038C59.8786 52.409 65.1609 61.1821 70.7359 69.8083C69.9136 64.2489 67.5372 59.0606 67.0355 52.9131C67.6696 53.5362 68.0738 53.7533 68.1714 54.0614C68.5547 55.3007 68.8752 56.568 69.1679 57.8283C70.2063 62.3374 71.2237 66.8535 72.262 71.3626C72.3526 71.7687 72.5408 72.1468 72.8683 73.0291C72.8683 70.9776 72.938 69.4442 72.8474 67.9178C72.7359 65.9713 72.3944 64.0318 72.3248 62.0854C72.0739 55.2097 71.8857 48.334 71.6906 41.4582C71.5721 37.1872 71.4537 32.9161 71.4119 28.6451C71.3979 26.6986 71.6836 24.7451 71.6558 22.7916C71.6 18.3735 71.4258 13.9625 71.3143 9.54436C71.3004 8.9212 71.377 8.29805 71.4258 7.46484C72.5199 7.96897 72.5547 8.77417 72.6035 9.50235C72.7986 12.247 73.0356 14.9847 73.0983 17.7294C73.2864 26.9157 73.3979 36.1089 73.5582 45.3022C73.6906 52.9061 73.8439 60.503 73.9903 68.1068C73.9973 68.5129 74.046 68.919 74.4502 69.3882C75.6279 64.69 76.8057 59.9918 77.9834 55.2937C78.1646 55.3147 78.3457 55.3357 78.5269 55.3567C78.9381 56.2389 78.6733 57.1631 78.4503 58.0874C77.4398 62.2324 76.4154 66.3774 75.4049 70.5224C75.3422 70.7885 75.3283 71.0686 75.4677 71.4117C84.4364 52.1709 94.6247 33.5953 104.813 14.7396C105.635 15.8459 105.092 16.6651 104.785 17.3513C103.545 20.117 102.283 22.8827 100.876 25.5643C97.5585 31.9079 94.109 38.1744 90.7989 44.525C87.8581 50.1684 85.0845 55.8888 82.1646 61.5392C80.4782 64.809 78.6524 68.0158 76.8962 71.2506L77.2238 71.5937C77.8788 71.0406 78.5757 70.5224 79.182 69.9133C81.2238 67.8688 83.2239 65.7753 85.2587 63.7238C85.7814 63.1916 86.3737 62.7295 87.1403 62.4494C84.5967 66.0063 81.6141 69.1291 78.5548 72.2729C81.9207 69.9693 85.2866 67.6517 88.6664 65.3692C92.1299 63.0236 95.6073 60.699 99.0847 58.3674C102.562 56.0359 105.991 53.6273 109.517 51.3867C113.05 49.1461 116.709 47.1156 120.263 44.9031C123.782 42.7116 127.022 40.0579 130.953 38.0204C131.05 39.3577 130.228 39.8058 129.608 40.268C127.468 41.8643 125.329 43.4607 123.099 44.9101C117.224 48.719 111.273 52.395 105.412 56.2179C99.9767 59.7608 94.6317 63.4577 89.21 67.0286C86.6176 68.737 83.9416 70.3124 81.3144 71.9578C80.6524 72.3709 80.0252 72.84 79.4468 73.4562C85.2169 72.805 90.2274 69.5982 96.0254 68.5129C95.9557 69.4512 95.2728 69.5562 94.7292 69.7382C91.656 70.7605 88.5619 71.7407 85.4887 72.756C83.2517 73.4982 81.0217 74.2754 78.4503 75.1436C79.4189 75.8298 80.2064 75.6477 80.9102 75.6197C86.2343 75.4166 91.5585 75.1086 96.8826 74.9615C104.952 74.7445 113.022 74.5834 121.092 74.4924C127.433 74.4224 133.775 74.4924 140.124 74.5064C140.806 74.5064 141.489 74.5764 142.486 74.6325C141.726 75.7597 140.855 75.8017 140.061 75.8228C134.737 75.9838 129.406 76.1238 124.082 76.2358C116.806 76.3899 109.524 76.5299 102.248 76.6349C97.8512 76.698 93.4539 76.684 89.0497 76.705C86.9661 76.712 84.8824 76.705 82.7639 76.852C84.0671 77.7972 85.5863 78.1123 87.0915 78.4624C90.109 79.1556 93.1334 79.8137 96.1439 80.5419C96.8408 80.71 97.4888 81.1021 98.0742 81.6342C94.4087 81.7392 91.0428 80.4229 87.5723 79.7227C84.074 79.0155 80.6872 77.8042 77.1959 76.929C78.4572 78.0843 80.0252 78.6725 81.5514 79.3376C84.4573 80.6049 87.3772 81.8232 90.2623 83.1326C96.3669 85.8912 102.492 88.6289 108.548 91.4996C112.388 93.3201 116.102 95.4136 119.907 97.3111C123.649 99.1805 127.433 100.959 131.204 102.772C132.437 103.368 133.684 103.935 134.911 104.551C135.266 104.733 135.538 105.055 136.061 105.489C134.897 106.098 134.019 105.594 133.28 105.258C128.367 103.024 123.489 100.714 118.611 98.4103C113.782 96.1348 108.959 93.8452 104.151 91.5346C98.3042 88.7269 92.4714 85.8912 86.6246 83.0695C84.4434 82.0193 82.2482 80.983 79.9555 80.0728C83.2099 84.0848 87.426 87.2006 90.318 91.6747C89.0497 92.1718 88.4852 91.3246 87.8859 90.6804C85.7326 88.3488 83.5932 86.0033 81.4608 83.6507C79.858 81.8863 78.2761 80.1078 76.6872 78.3294C76.4572 78.5534 76.2342 78.7705 76.0042 78.9945L76.0252 79.0225Z" fill="#2496FF"/>
<path d="M64.4783 114.963C64.3598 114.375 64.102 113.87 64.2065 113.464C64.8686 111.021 64.9661 108.381 66.4435 105.938C67.1125 108.136 65.9487 113.401 64.4783 114.963Z" fill="#2496FF"/>
<path d="M43.8228 103.557C44.5127 102.044 48.1364 98.7253 49.7183 98.1582C48.8402 100.588 45.8855 103.29 43.8228 103.557Z" fill="#2496FF"/>
<path d="M47.8925 84.7157C45.0981 86.3751 42.6869 87.7264 39.2861 87.9085C40.5753 86.2911 42.1363 86.221 43.4186 85.6819C44.673 85.1568 45.8855 84.2816 47.8925 84.7157Z" fill="#2496FF"/>
<path d="M108.611 107.961C106.325 107.506 104.514 105.748 103.315 102.99C104.764 103.277 107.622 105.895 108.611 107.961Z" fill="#2496FF"/>
<path d="M83.3286 110.132C81.7816 108.361 80.9871 105.616 81.2032 103.214C82.4924 104.279 83.5447 107.562 83.3286 110.132Z" fill="#2496FF"/>
<path d="M113.692 85.5484C116.145 85.1143 118.284 86.0946 120.73 87.0118C118.869 87.915 115.936 87.3059 113.692 85.5484Z" fill="#2496FF"/>
<path d="M102.318 82.6714C104.743 82.8674 107.315 82.7554 109.19 84.7999C106.764 84.5759 104.367 84.2888 102.318 82.6714Z" fill="#2496FF"/>
<path d="M65.3282 44.75C66.6104 46.2414 67.1749 48.5379 66.8961 51.1006C65.4885 49.7282 64.7289 46.6265 65.3282 44.75Z" fill="#2496FF"/>
<path d="M31.7181 65.9933C29.3696 66.1614 27.1048 65.9583 25.1814 64.453C27.5856 64.0048 29.6832 64.8311 31.7181 65.9933Z" fill="#2496FF"/>
<path d="M43.0981 69.5217C40.8751 69.5217 38.8054 69.0035 36.9238 67.7992C39.328 67.1341 41.2932 68.0373 43.0981 69.5217Z" fill="#2496FF"/>
<path d="M86.5968 120.935C85.2797 119.086 84.7849 117.021 84.6943 114.668C86.2623 115.935 87.0985 118.54 86.5968 120.935Z" fill="#2496FF"/>
<path d="M94.3325 94.8403C95.7889 96.1497 97.2384 97.466 98.89 98.9503C96.89 99.2024 94.9387 97.571 93.9771 95.2184C94.0955 95.0924 94.214 94.9664 94.3325 94.8403Z" fill="#2496FF"/>
<path d="M114.897 61.4208C113.141 62.7371 111.064 63.2272 108.82 63.7314C109.677 62.408 112.235 61.3858 114.897 61.4208Z" fill="#2496FF"/>
<path d="M99.0295 48.2153C98.2699 49.9168 96.9946 51.1281 95.4963 52.1223C96.1026 50.3018 97.2176 48.9365 99.0295 48.2153Z" fill="#2496FF"/>
<path d="M107.099 64.4029C104.513 65.9643 101.893 66.2584 99.4819 67.1336C100.834 65.8383 104.98 64.3049 107.099 64.4029Z" fill="#2496FF"/>
<path d="M61.8091 125.641C61.3352 123.667 61.6349 122.455 62.952 120.551C63.5582 121.846 63.1401 123.898 61.8091 125.641Z" fill="#2496FF"/>
<path d="M80.2416 45.9463C80.367 47.9908 79.9907 49.9163 78.9314 51.6737C78.7781 49.6292 79.1056 47.6967 80.2416 45.9463Z" fill="#2496FF"/>
<path d="M45.2235 51.8278C43.5649 51.2817 42.0945 50.5325 41.1189 48.439C43.3071 49.0901 44.5614 50.1054 45.2235 51.8278Z" fill="#2496FF"/>
<path d="M35.6209 89.3511C33.816 90.8915 32.2341 91.7387 30.1992 92.0257C31.1679 90.5274 32.8543 89.6662 35.6209 89.3511Z" fill="#2496FF"/>
<path d="M88.3533 59.7685C89.6146 57.8641 91.2105 56.2887 93.0084 54.9233C93.1478 55.0564 93.2871 55.1894 93.4265 55.3294C91.8794 56.9258 90.3254 58.5222 88.7784 60.1116C88.639 59.9996 88.4996 59.8806 88.3533 59.7685Z" fill="#2496FF"/>
<path d="M48.7568 54.5303C50.4502 55.0134 51.3701 56.1127 52.1436 57.576C50.5408 57.499 49.5373 56.5818 48.7568 54.5303Z" fill="#2496FF"/>
<path d="M38.896 107.331C38.1643 108.913 37.0632 110.026 35.4744 110.565C35.997 108.78 37.4605 108.059 38.896 107.331Z" fill="#2496FF"/>
<path d="M60.1783 134.365C59.9344 132.685 60.0877 131.123 61.1818 129.373C61.6487 131.474 60.9379 132.937 60.1783 134.365Z" fill="#2496FF"/>
<path d="M21.0627 95.9959C22.0523 94.7916 23.1673 93.9234 25.0001 94.1965C23.8711 95.5058 22.568 95.9749 21.0627 95.9959Z" fill="#2496FF"/>
<path d="M63.3705 40.2336C63.1614 38.9873 62.9454 37.734 62.7363 36.4877C62.9315 36.4457 63.1266 36.4107 63.3217 36.3687C64.4158 37.4539 63.9768 38.8753 63.9489 40.2056C63.7538 40.2126 63.5656 40.2196 63.3705 40.2266V40.2336Z" fill="#2496FF"/>
<path d="M120.653 59.0396C119.364 60.1598 118.918 60.3279 117.246 60.2859C118.312 59.1236 118.709 58.9766 120.653 59.0396Z" fill="#2496FF"/>
<path d="M114.605 113.864C113.336 113.689 112.855 112.779 112.423 111.736C114.089 111.715 114.577 112.191 114.605 113.864Z" fill="#2496FF"/>
<path d="M81.8581 37.8101C82.3529 39.1124 81.6839 40.1416 81.3076 41.2269C80.9382 39.6585 81.0846 38.8463 81.8581 37.8101Z" fill="#2496FF"/>
<path d="M104.207 41.3119C104.841 40.6397 105.475 39.9746 106.43 38.9663C106.506 40.8848 105.468 41.2349 104.639 41.76C104.493 41.606 104.346 41.4589 104.207 41.3049V41.3119Z" fill="#2496FF"/>
<path d="M88.7366 128.189C87.8307 127.244 87.5868 126.431 87.9073 125.248C88.7784 126.074 88.9735 126.9 88.7366 128.189Z" fill="#2496FF"/>
<path d="M124.695 87.9992C125.371 88.2933 126.04 88.5803 126.716 88.8744L126.507 89.4275C125.81 89.1965 125.106 88.9654 124.409 88.7344C124.507 88.4893 124.604 88.2442 124.702 87.9922L124.695 87.9992Z" fill="#2496FF"/>
<path d="M83.1263 31.6216C82.9103 32.5039 82.6943 33.3861 82.4782 34.2753C82.304 34.2333 82.1298 34.1843 81.9556 34.1423C82.1855 33.26 82.4085 32.3778 82.6385 31.4956C82.7988 31.5376 82.966 31.5796 83.1263 31.6216Z" fill="#2496FF"/>
<path d="M131.824 91.2759C131.218 90.9678 130.618 90.6527 129.615 90.1416C131.085 89.6935 131.559 90.2746 132.082 90.7647C131.998 90.9398 131.908 91.1078 131.824 91.2829V91.2759Z" fill="#2496FF"/>
<path d="M101.147 45.6667C100.987 44.6935 101.454 44.2454 102.437 44.0493C102.534 45.0856 101.844 45.3866 101.147 45.6667Z" fill="#2496FF"/>
<path d="M119.385 119.066C118.158 119.304 117.894 118.772 117.768 118.002C118.855 117.582 118.89 118.401 119.385 119.066Z" fill="#2496FF"/>
<path d="M59.8512 24.6685C59.9487 25.2566 60.0463 25.8447 60.1857 26.671C59.6467 26.0595 59.5352 25.392 59.8512 24.6685Z" fill="#2496FF"/>
<path d="M18.4569 63.2898C17.9204 63.1847 17.3838 63.0797 16.8472 62.9677C16.889 62.7926 16.9238 62.6106 16.9656 62.4355L18.5545 62.8416C18.5197 62.9887 18.4848 63.1427 18.4569 63.2898Z" fill="#2496FF"/>
<path d="M83.3284 26.6917C83.4608 26.3066 83.5932 25.9286 83.7186 25.5435C83.858 25.5785 83.9974 25.6065 84.1367 25.6415L83.9556 26.8668C83.7465 26.8108 83.5374 26.7478 83.3284 26.6917Z" fill="#2496FF"/>
<path d="M12.6516 62.1492C12.0593 62.0862 11.467 62.0232 10.8816 61.9602C10.9025 61.7782 10.9234 61.5961 10.9443 61.4141C11.5297 61.4911 12.122 61.5681 12.7074 61.6381C12.6865 61.8062 12.6726 61.9812 12.6516 62.1492Z" fill="#2496FF"/>
<path d="M61.6069 32.3558C61.4396 32.0337 61.2654 31.7186 61.0981 31.3966C61.2166 31.3336 61.3351 31.2705 61.4536 31.2075C61.6208 31.5296 61.7811 31.8517 61.9483 32.1738L61.5999 32.3558H61.6069Z" fill="#2496FF"/>
<path d="M37.4602 44.5889C37.7878 44.925 38.1153 45.261 38.4498 45.5971L38.0874 45.9962C37.739 45.6951 37.3905 45.3941 37.0491 45.093C37.1884 44.9249 37.3278 44.7569 37.4672 44.5889H37.4602Z" fill="#2496FF"/>
<path d="M126.465 57.1428C126.04 57.3178 125.615 57.4858 125.19 57.6609L125.023 57.2268C125.448 57.0657 125.88 56.9047 126.305 56.7437L126.458 57.1428H126.465Z" fill="#2496FF"/>
</g>
<g filter="url(#filter1_d_61_19045)">
<path d="M131.703 42.8438V46.8438H135.703H138.875V57.1406V61.1406H142.875H146V88.8594H142.875H138.875V92.8594V103.156H135.703H131.703V107.156V117.406H128.578H124.578V121.406V124.578H121.406H117.406V128.578V131.703H107.156H103.156V135.703V138.875H92.8594H88.8594V142.875V146H61.1406V142.875V138.875H57.1406H46.8438V135.703V131.703H42.8438H32.5469V128.578V124.578H28.5469H25.4219V121.406V117.406H21.4219H18.2969V107.156V103.156H14.2969H11.125V92.8594V88.8594H7.125H4V61.1406H7.125H11.125V57.1406V46.8438H14.2969H18.2969V42.8438V32.5469H21.4219H25.4219V28.5469V25.4219H28.5469H32.5469V21.4219V18.2969H42.8438H46.8438V14.2969V11.125H57.1406H61.1406V7.125V4H88.8594V7.125V11.125H92.8594H103.156V14.2969V18.2969H107.156H117.406V21.4219V25.4219H121.406H124.578V28.5469V32.5469H128.578H131.703V42.8438Z" stroke="url(#paint0_linear_61_19045)" stroke-width="8"/>
</g>
<path opacity="0.5" d="M45.4773 42.666H37.0422V51.1011H45.4773V42.666Z" fill="#0040A1"/>
<path opacity="0.5" d="M45.4773 90.4644H37.0422V98.8994H45.4773V90.4644Z" fill="#0040A1"/>
<path opacity="0.5" d="M121.393 59.5356H112.958V67.9707H121.393V59.5356Z" fill="#0040A1"/>
<path opacity="0.5" d="M112.958 90.4644H104.523V98.8994H112.958V90.4644Z" fill="#0040A1"/>
<path opacity="0.5" d="M87.6526 115.77H79.2175V124.205H87.6526V115.77Z" fill="#0040A1"/>
<g filter="url(#filter2_d_61_19045)">
<path d="M80.2069 27.168H69.7932V37.5816H80.2069V27.168Z" fill="url(#paint1_linear_61_19045)"/>
<path d="M59.3797 47.9937H48.9661V58.4073H59.3797V47.9937Z" fill="url(#paint2_linear_61_19045)"/>
<path d="M69.7933 37.5815H59.3796V47.9952H69.7933V37.5815Z" fill="url(#paint3_linear_61_19045)"/>
<path d="M90.6204 37.5815H80.2068V47.9952H90.6204V37.5815Z" fill="url(#paint4_linear_61_19045)"/>
<path d="M90.6203 47.9937H101.034V58.4073H90.6203V47.9937Z" fill="url(#paint5_linear_61_19045)"/>
<path d="M48.9659 58.4087H38.5522V68.8223H48.9659V58.4087Z" fill="url(#paint6_linear_61_19045)"/>
<path d="M101.034 58.4087H111.448V68.8223H101.034V58.4087Z" fill="url(#paint7_linear_61_19045)"/>
<path fill-rule="evenodd" clip-rule="evenodd" d="M80.2067 54.9365H69.793V65.3501H59.3794V75.7638H69.793H69.7931H80.2067H80.2067H90.6203V65.3501H80.2067V54.9365ZM69.793 127.832V117.42H59.3794V107.006H69.793H80.2067H90.6203V117.42H80.2067V127.832H69.793ZM80.2067 86.1774H69.7931H69.793H59.3795V75.7653H48.9658V86.1789H59.3794V96.591H69.793H80.2067H90.6203L90.6203 107.005H101.034V96.591L90.6203 96.591V86.1774H80.2067H80.2067Z" fill="url(#paint8_linear_61_19045)"/>
</g>
<path d="M80.2069 24.668H69.7932V35.0816H80.2069V24.668Z" fill="#FABB1E"/>
<path d="M59.3797 45.4937H48.9661V55.9073H59.3797V45.4937Z" fill="#FABB1E"/>
<path d="M69.7933 35.0815H59.3796V45.4952H69.7933V35.0815Z" fill="#FABB1E"/>
<path d="M90.6204 35.0815H80.2068V45.4952H90.6204V35.0815Z" fill="#FABB1E"/>
<path d="M90.6203 45.4937H101.034V55.9073H90.6203V45.4937Z" fill="#FABB1E"/>
<path d="M48.9659 55.9087H38.5522V66.3223H48.9659V55.9087Z" fill="#FABB1E"/>
<path d="M101.034 55.9087H111.448V66.3223H101.034V55.9087Z" fill="#FABB1E"/>
<path fill-rule="evenodd" clip-rule="evenodd" d="M80.2067 52.4365H69.793V62.8501H59.3794V73.2638H69.793H69.7931H80.2067H80.2067H90.6203V62.8501H80.2067V52.4365ZM69.793 125.332V114.92H59.3794V104.506H69.793H80.2067H90.6203V114.92H80.2067V125.332H69.793ZM80.2067 83.6774H69.7931H69.793H59.3795V73.2653H48.9658V83.6789H59.3794V94.091H69.793H80.2067H90.6203L90.6203 104.505H101.034V94.091L90.6203 94.091V83.6774H80.2067H80.2067Z" fill="url(#paint9_linear_61_19045)"/>
</g>
<defs>
<filter id="filter0_f_61_19045" x="1.00684" y="3.46484" width="145.479" height="145.521" filterUnits="userSpaceOnUse" color-interpolation-filters="sRGB">
<feFlood flood-opacity="0" result="BackgroundImageFix"/>
<feBlend mode="normal" in="SourceGraphic" in2="BackgroundImageFix" result="shape"/>
<feGaussianBlur stdDeviation="2" result="effect1_foregroundBlur_61_19045"/>
</filter>
<filter id="filter1_d_61_19045" x="-4" y="0" width="158" height="158" filterUnits="userSpaceOnUse" color-interpolation-filters="sRGB">
<feFlood flood-opacity="0" result="BackgroundImageFix"/>
<feColorMatrix in="SourceAlpha" type="matrix" values="0 0 0 0 0 0 0 0 0 0 0 0 0 0 0 0 0 0 127 0" result="hardAlpha"/>
<feOffset dy="4"/>
<feGaussianBlur stdDeviation="2"/>
<feColorMatrix type="matrix" values="0 0 0 0 0 0 0 0 0 0 0 0 0 0 0 0 0 0 0.25 0"/>
<feBlend mode="normal" in2="BackgroundImageFix" result="effect1_dropShadow_61_19045"/>
<feBlend mode="normal" in="SourceGraphic" in2="effect1_dropShadow_61_19045" result="shape"/>
</filter>
<filter id="filter2_d_61_19045" x="38.0522" y="27.168" width="73.8955" height="103.164" filterUnits="userSpaceOnUse" color-interpolation-filters="sRGB">
<feFlood flood-opacity="0" result="BackgroundImageFix"/>
<feColorMatrix in="SourceAlpha" type="matrix" values="0 0 0 0 0 0 0 0 0 0 0 0 0 0 0 0 0 0 127 0" result="hardAlpha"/>
<feOffset dy="2"/>
<feGaussianBlur stdDeviation="0.25"/>
<feComposite in2="hardAlpha" operator="out"/>
<feColorMatrix type="matrix" values="0 0 0 0 0 0 0 0 0 0 0 0 0 0 0 0 0 0 0.55 0"/>
<feBlend mode="normal" in2="BackgroundImageFix" result="effect1_dropShadow_61_19045"/>
<feBlend mode="normal" in="SourceGraphic" in2="effect1_dropShadow_61_19045" result="shape"/>
</filter>
<linearGradient id="paint0_linear_61_19045" x1="75" y1="0" x2="75" y2="150" gradientUnits="userSpaceOnUse">
<stop stop-color="#FABB1E"/>
<stop offset="1" stop-color="#A55921"/>
</linearGradient>
<linearGradient id="paint1_linear_61_19045" x1="75" y1="27.168" x2="75" y2="37.5816" gradientUnits="userSpaceOnUse">
<stop stop-color="#D70F0F"/>
<stop offset="1" stop-color="#690505"/>
</linearGradient>
<linearGradient id="paint2_linear_61_19045" x1="54.1729" y1="47.9937" x2="54.1729" y2="58.4073" gradientUnits="userSpaceOnUse">
<stop stop-color="#D70F0F"/>
<stop offset="1" stop-color="#690505"/>
</linearGradient>
<linearGradient id="paint3_linear_61_19045" x1="64.5865" y1="37.5815" x2="64.5865" y2="47.9952" gradientUnits="userSpaceOnUse">
<stop stop-color="#D70F0F"/>
<stop offset="1" stop-color="#690505"/>
</linearGradient>
<linearGradient id="paint4_linear_61_19045" x1="85.4136" y1="37.5815" x2="85.4136" y2="47.9952" gradientUnits="userSpaceOnUse">
<stop stop-color="#D70F0F"/>
<stop offset="1" stop-color="#690505"/>
</linearGradient>
<linearGradient id="paint5_linear_61_19045" x1="95.8271" y1="47.9937" x2="95.8271" y2="58.4073" gradientUnits="userSpaceOnUse">
<stop stop-color="#D70F0F"/>
<stop offset="1" stop-color="#690505"/>
</linearGradient>
<linearGradient id="paint6_linear_61_19045" x1="43.7591" y1="58.4087" x2="43.7591" y2="68.8223" gradientUnits="userSpaceOnUse">
<stop stop-color="#D70F0F"/>
<stop offset="1" stop-color="#690505"/>
</linearGradient>
<linearGradient id="paint7_linear_61_19045" x1="106.241" y1="58.4087" x2="106.241" y2="68.8223" gradientUnits="userSpaceOnUse">
<stop stop-color="#D70F0F"/>
<stop offset="1" stop-color="#690505"/>
</linearGradient>
<linearGradient id="paint8_linear_61_19045" x1="74.9999" y1="54.9365" x2="74.9999" y2="127.832" gradientUnits="userSpaceOnUse">
<stop stop-color="#D70F0F"/>
<stop offset="1" stop-color="#690505"/>
</linearGradient>
<linearGradient id="paint9_linear_61_19045" x1="74.9999" y1="52.4365" x2="74.9999" y2="125.332" gradientUnits="userSpaceOnUse">
<stop stop-color="#FABB1E"/>
<stop offset="1" stop-color="#A55921"/>
</linearGradient>
</defs>
</svg>
