<svg width="24" height="24" viewBox="0 0 24 24" fill="none" xmlns="http://www.w3.org/2000/svg">
<mask id="mask0_51_53948" style="mask-type:alpha" maskUnits="userSpaceOnUse" x="0" y="0" width="24" height="24">
<path d="M22.86 6.855H21.7125V4.5675H20.5725V3.4275H19.425V2.2875H17.145V1.14H14.8575V0H9.1425V1.14H6.855V2.2875H4.5675V3.4275H3.4275V4.5675H2.2875V6.855H1.14V9.1425H0V14.8575H1.14V17.145H2.2875V19.425H3.4275V20.5725H4.5675V21.7125H6.855V22.86H9.1425V24H14.8575V22.86H17.145V21.7125H19.425V20.5725H20.5725V19.425H21.7125V17.145H22.86V14.8575H24V9.1425H22.86V6.855Z" fill="#002050"/>
</mask>
<g mask="url(#mask0_51_53948)">
<path d="M22.86 6.855H21.7125V4.5675H20.5725V3.4275H19.425V2.2875H17.145V1.14H14.8575V0H9.1425V1.14H6.855V2.2875H4.5675V3.4275H3.4275V4.5675H2.2875V6.855H1.14V9.1425H0V14.8575H1.14V17.145H2.2875V19.425H3.4275V20.5725H4.5675V21.7125H6.855V22.86H9.1425V24H14.8575V22.86H17.145V21.7125H19.425V20.5725H20.5725V19.425H21.7125V17.145H22.86V14.8575H24V9.1425H22.86V6.855Z" fill="#002050"/>
<g filter="url(#filter0_d_51_53948)">
<path d="M21.2125 6.855V7.355H21.7125H22.36V9.1425V9.6425H22.86H23.5V14.3575H22.86H22.36V14.8575V16.645H21.7125H21.2125V17.145V18.925H20.5725H20.0725V19.425V20.0725H19.425H18.925V20.5725V21.2125H17.145H16.645V21.7125V22.36H14.8575H14.3575V22.86V23.5H9.6425V22.86V22.36H9.1425H7.355V21.7125V21.2125H6.855H5.0675V20.5725V20.0725H4.5675H3.9275V19.425V18.925H3.4275H2.7875V17.145V16.645H2.2875H1.64V14.8575V14.3575H1.14H0.5V9.6425H1.14H1.64V9.1425V7.355H2.2875H2.7875V6.855V5.0675H3.4275H3.9275V4.5675V3.9275H4.5675H5.0675V3.4275V2.7875H6.855H7.355V2.2875V1.64H9.1425H9.6425V1.14V0.5H14.3575V1.14V1.64H14.8575H16.645V2.2875V2.7875H17.145H18.925V3.4275V3.9275H19.425H20.0725V4.5675V5.0675H20.5725H21.2125V6.855Z" stroke="#2496FF"/>
</g>
<g filter="url(#filter1_d_51_53948)">
<path d="M12.6748 5.47705H11.3252V6.82666H12.6748V5.47705Z" fill="#2496FF"/>
<path d="M9.97559 8.17578H8.62598V9.52539H9.97559V8.17578Z" fill="#2496FF"/>
<path d="M11.3252 6.82666H9.97559V8.17627H11.3252V6.82666Z" fill="#2496FF"/>
<path d="M14.0244 6.82666H12.6748V8.17627H14.0244V6.82666Z" fill="#2496FF"/>
<path d="M14.0244 8.17578H15.374V9.52539H14.0244V8.17578Z" fill="#2496FF"/>
<path d="M8.62598 9.52588H7.27637V10.8755H8.62598V9.52588Z" fill="#2496FF"/>
<path d="M15.374 9.52588H16.7236V10.8755H15.374V9.52588Z" fill="#2496FF"/>
<path d="M12.6748 10.4253H11.3252V11.7749H12.6748V10.4253Z" fill="#2496FF"/>
<path d="M12.6748 9.07568H11.3252V10.4253H12.6748V9.07568Z" fill="#2496FF"/>
<path d="M12.6748 17.1733H11.3252V18.523H12.6748V17.1733Z" fill="#2496FF"/>
<path d="M12.6748 13.1245H11.3252V14.4741H12.6748V13.1245Z" fill="#2496FF"/>
<path d="M12.6748 15.8242H11.3252V17.1738H12.6748V15.8242Z" fill="#2496FF"/>
<path d="M11.3252 10.4253H9.97559V11.7749H11.3252V10.4253Z" fill="#2496FF"/>
<path d="M11.3252 13.1245H9.97559V14.4741H11.3252V13.1245Z" fill="#2496FF"/>
<path d="M11.3252 15.8242H9.97559V17.1738H11.3252V15.8242Z" fill="#2496FF"/>
<path d="M9.97559 11.7754H8.62598V13.125H9.97559V11.7754Z" fill="#2496FF"/>
<path d="M14.0244 10.4253H12.6748V11.7749H14.0244V10.4253Z" fill="#2496FF"/>
<path d="M14.0244 13.1245H12.6748V14.4741H14.0244V13.1245Z" fill="#2496FF"/>
<path d="M14.0244 15.8242H12.6748V17.1738H14.0244V15.8242Z" fill="#2496FF"/>
<path d="M15.374 14.4741H14.0244V15.8237H15.374V14.4741Z" fill="#2496FF"/>
</g>
</g>
<defs>
<filter id="filter0_d_51_53948" x="-2" y="-1" width="28" height="28" filterUnits="userSpaceOnUse" color-interpolation-filters="sRGB">
<feFlood flood-opacity="0" result="BackgroundImageFix"/>
<feColorMatrix in="SourceAlpha" type="matrix" values="0 0 0 0 0 0 0 0 0 0 0 0 0 0 0 0 0 0 127 0" result="hardAlpha"/>
<feOffset dy="1"/>
<feGaussianBlur stdDeviation="1"/>
<feColorMatrix type="matrix" values="0 0 0 0 0 0 0 0 0 0 0 0 0 0 0 0 0 0 0.25 0"/>
<feBlend mode="normal" in2="BackgroundImageFix" result="effect1_dropShadow_51_53948"/>
<feBlend mode="normal" in="SourceGraphic" in2="effect1_dropShadow_51_53948" result="shape"/>
</filter>
<filter id="filter1_d_51_53948" x="6.27637" y="5.47705" width="11.4473" height="15.0459" filterUnits="userSpaceOnUse" color-interpolation-filters="sRGB">
<feFlood flood-opacity="0" result="BackgroundImageFix"/>
<feColorMatrix in="SourceAlpha" type="matrix" values="0 0 0 0 0 0 0 0 0 0 0 0 0 0 0 0 0 0 127 0" result="hardAlpha"/>
<feOffset dy="1"/>
<feGaussianBlur stdDeviation="0.5"/>
<feComposite in2="hardAlpha" operator="out"/>
<feColorMatrix type="matrix" values="0 0 0 0 0 0 0 0 0 0 0 0 0 0 0 0 0 0 0.25 0"/>
<feBlend mode="normal" in2="BackgroundImageFix" result="effect1_dropShadow_51_53948"/>
<feBlend mode="normal" in="SourceGraphic" in2="effect1_dropShadow_51_53948" result="shape"/>
</filter>
</defs>
</svg>
