<svg width="406" height="406" viewBox="0 0 406 406" fill="none" xmlns="http://www.w3.org/2000/svg">
<g filter="url(#filter0_d_51_53945)">
<mask id="mask0_51_53945" style="mask-type:alpha" maskUnits="userSpaceOnUse" x="128" y="78" width="150" height="150">
<path d="M270.875 120.844H263.703V106.547H256.578V99.4219H249.406V92.2969H235.156V85.125H220.859V78H185.141V85.125H170.844V92.2969H156.547V99.4219H149.422V106.547H142.297V120.844H135.125V135.141H128V170.859H135.125V185.156H142.297V199.406H149.422V206.578H156.547V213.703H170.844V220.875H185.141V228H220.859V220.875H235.156V213.703H249.406V206.578H256.578V199.406H263.703V185.156H270.875V170.859H278V135.141H270.875V120.844Z" fill="#002050"/>
</mask>
<g mask="url(#mask0_51_53945)">
<mask id="mask1_51_53945" style="mask-type:alpha" maskUnits="userSpaceOnUse" x="128" y="78" width="150" height="150">
<path d="M270.875 120.844H263.703V106.547H256.578V99.4219H249.406V92.2969H235.156V85.125H220.859V78H185.141V85.125H170.844V92.2969H156.547V99.4219H149.422V106.547H142.297V120.844H135.125V135.141H128V170.859H135.125V185.156H142.297V199.406H149.422V206.578H156.547V213.703H170.844V220.875H185.141V228H220.859V220.875H235.156V213.703H249.406V206.578H256.578V199.406H263.703V185.156H270.875V170.859H278V135.141H270.875V120.844Z" fill="#002050"/>
</mask>
<g mask="url(#mask1_51_53945)">
<path d="M270.875 120.844H263.703V106.547H256.578V99.4219H249.406V92.2969H235.156V85.125H220.859V78H185.141V85.125H170.844V92.2969H156.547V99.4219H149.422V106.547H142.297V120.844H135.125V135.141H128V170.859H135.125V185.156H142.297V199.406H149.422V206.578H156.547V213.703H170.844V220.875H185.141V228H220.859V220.875H235.156V213.703H249.406V206.578H256.578V199.406H263.703V185.156H270.875V170.859H278V135.141H270.875V120.844Z" fill="#002050"/>
<g opacity="0.6" filter="url(#filter1_f_51_53945)">
<path d="M204.025 157.023C216.492 174.877 227.823 193.439 238.792 212.259C237.496 212.161 237.001 211.16 236.43 210.327C234.186 207.05 231.97 203.752 229.782 200.433C229.147 199.474 228.722 198.375 228.109 197.395C225.28 192.85 222.409 188.334 219.565 183.797C216.109 178.287 212.659 172.769 209.21 167.252C207.914 165.18 206.618 163.114 204.959 161.182C206.241 166.405 207.516 171.635 208.799 176.858C208.631 176.9 208.457 176.949 208.29 176.991C205.384 171.754 205.328 165.579 202.994 160.131C202.694 181.094 203.99 202.03 203.614 222.986C202.513 218.071 202.548 213.043 202.123 208.072C201.698 203.031 201.732 197.948 201.586 192.878C201.433 187.886 201.321 182.894 201.154 177.895C200.987 172.902 201.928 167.889 201.147 162.645C199.635 168.064 198.206 173.183 196.757 178.294C196.715 178.434 196.429 178.497 196.081 178.7C195.628 177.622 195.927 176.704 196.185 175.752C197.447 171.152 198.687 166.545 199.928 161.931C200.095 161.322 200.171 160.684 199.893 159.893C190.227 178.462 180.554 197.023 170.889 215.592C170.729 215.543 170.568 215.494 170.415 215.445C170.485 215.032 170.478 214.584 170.645 214.213C171.858 211.51 173.077 208.814 174.345 206.133C175.676 203.325 177.035 200.531 178.415 197.745C181.293 191.912 184.136 186.059 187.105 180.275C189.021 176.543 191.154 172.93 193.168 169.255C194.861 166.167 196.527 163.065 198.206 159.97C198.074 159.865 197.941 159.767 197.809 159.662C196.478 160.88 195.175 162.134 193.816 163.31C190.429 166.237 187.028 169.15 183.593 172.02C182.861 172.629 181.962 173.035 181.14 173.533C181.021 173.365 180.903 173.197 180.791 173.029C183.3 170.949 185.837 168.911 188.297 166.776C190.729 164.668 193.077 162.463 195.314 160.096C178.011 170.123 161.927 182.04 144.533 191.996C144.826 191.674 145.07 191.282 145.411 191.037C149.795 187.872 154.15 184.658 158.596 181.585C164.526 177.482 170.506 173.442 176.527 169.479C179.962 167.217 183.544 165.187 187.035 163.009C190.687 160.726 194.304 158.395 197.934 156.084C197.872 155.958 197.802 155.839 197.739 155.713C194.701 156.777 191.697 157.947 188.617 158.871C185.628 159.774 182.701 160.958 179.551 161.35C180.032 160.152 181.112 159.935 182.067 159.613C185.279 158.535 188.506 157.527 191.732 156.476C192.248 156.308 192.757 156.098 193.231 155.727C173.293 154.95 153.397 156.364 133.007 155.888C133.697 155.503 133.989 155.223 134.31 155.188C135.885 155.02 137.467 154.859 139.049 154.789C145.307 154.523 151.572 154.285 157.829 154.061C161.216 153.942 164.603 153.844 167.983 153.781C172.596 153.697 177.203 153.599 181.816 153.606C184.694 153.606 187.579 153.795 190.457 153.872C191.537 153.9 192.617 153.872 193.718 153.711C188.241 150.721 181.83 151.33 175.816 149.181C178.143 148.319 183.168 149.125 193.739 151.785C176.06 142.298 157.453 134.68 139.3 125.109C142.003 125.221 150.038 128.659 159.021 133.042C165.237 136.073 171.614 138.769 177.899 141.661C184.22 144.573 190.032 148.522 196.652 150.882C192.422 146.485 187.251 143.187 182.75 139.126C182.819 138.993 182.889 138.86 182.959 138.727C183.251 138.762 183.621 138.692 183.83 138.846C185.774 140.218 187.746 141.549 189.6 143.04C192.318 145.232 194.938 147.542 197.67 149.853C187.119 131.718 175.182 114.557 164.889 96.3735C171.398 104.377 176.784 113.157 182.345 121.804C187.879 130.409 193.161 139.182 198.736 147.808C197.914 142.249 195.537 137.061 195.035 130.913C195.67 131.536 196.074 131.753 196.171 132.061C196.555 133.301 196.875 134.568 197.168 135.828C198.206 140.337 199.224 144.854 200.262 149.363C200.353 149.769 200.541 150.147 200.868 151.029C200.868 148.978 200.938 147.444 200.847 145.918C200.736 143.971 200.394 142.032 200.325 140.085C200.074 133.21 199.886 126.334 199.691 119.458C199.572 115.187 199.454 110.916 199.412 106.645C199.398 104.699 199.684 102.745 199.656 100.792C199.6 96.3735 199.426 91.9625 199.314 87.5444C199.3 86.9212 199.377 86.298 199.426 85.4648C200.52 85.969 200.555 86.7742 200.604 87.5023C200.799 90.247 201.036 92.9847 201.098 95.7294C201.286 104.916 201.398 114.109 201.558 123.302C201.691 130.906 201.844 138.503 201.99 146.107C201.997 146.513 202.046 146.919 202.45 147.388C203.628 142.69 204.806 137.992 205.983 133.294C206.165 133.315 206.346 133.336 206.527 133.357C206.938 134.239 206.673 135.163 206.45 136.087C205.44 140.232 204.415 144.377 203.405 148.522C203.342 148.789 203.328 149.069 203.468 149.412C212.436 130.171 222.625 111.595 232.813 92.7396C233.635 93.8459 233.092 94.6651 232.785 95.3513C231.545 98.117 230.283 100.883 228.876 103.564C225.559 109.908 222.109 116.174 218.799 122.525C215.858 128.168 213.085 133.889 210.165 139.539C208.478 142.809 206.652 146.016 204.896 149.251L205.224 149.594C205.879 149.041 206.576 148.522 207.182 147.913C209.224 145.869 211.224 143.775 213.259 141.724C213.781 141.192 214.374 140.73 215.14 140.449C212.597 144.006 209.614 147.129 206.555 150.273C209.921 147.969 213.287 145.652 216.666 143.369C220.13 141.024 223.607 138.699 227.085 136.367C230.562 134.036 233.991 131.627 237.517 129.387C241.05 127.146 244.709 125.116 248.263 122.903C251.782 120.712 255.022 118.058 258.953 116.02C259.05 117.358 258.228 117.806 257.608 118.268C255.468 119.864 253.329 121.461 251.099 122.91C245.224 126.719 239.273 130.395 233.412 134.218C227.977 137.761 222.632 141.458 217.21 145.029C214.618 146.737 211.942 148.312 209.314 149.958C208.652 150.371 208.025 150.84 207.447 151.456C213.217 150.805 218.227 147.598 224.025 146.513C223.956 147.451 223.273 147.556 222.729 147.738C219.656 148.76 216.562 149.741 213.489 150.756C211.252 151.498 209.022 152.275 206.45 153.144C207.419 153.83 208.206 153.648 208.91 153.62C214.234 153.417 219.558 153.109 224.883 152.962C232.952 152.744 241.022 152.583 249.092 152.492C255.433 152.422 261.775 152.492 268.124 152.506C268.806 152.506 269.489 152.576 270.486 152.632C269.726 153.76 268.855 153.802 268.061 153.823C262.737 153.984 257.406 154.124 252.082 154.236C244.806 154.39 237.524 154.53 230.248 154.635C225.851 154.698 221.454 154.684 217.05 154.705C214.966 154.712 212.882 154.705 210.764 154.852C212.067 155.797 213.586 156.112 215.091 156.462C218.109 157.156 221.133 157.814 224.144 158.542C224.841 158.71 225.489 159.102 226.074 159.634C222.409 159.739 219.043 158.423 215.572 157.723C212.074 157.016 208.687 155.804 205.196 154.929C206.457 156.084 208.025 156.672 209.551 157.338C212.457 158.605 215.377 159.823 218.262 161.133C224.367 163.891 230.492 166.629 236.548 169.5C240.388 171.32 244.102 173.414 247.907 175.311C251.649 177.181 255.433 178.959 259.204 180.772C260.437 181.368 261.684 181.935 262.911 182.551C263.266 182.733 263.538 183.055 264.061 183.489C262.897 184.098 262.019 183.594 261.28 183.258C256.367 181.024 251.489 178.714 246.611 176.41C241.782 174.135 236.959 171.845 232.151 169.535C226.304 166.727 220.471 163.891 214.625 161.07C212.443 160.019 210.248 158.983 207.956 158.073C211.21 162.085 215.426 165.201 218.318 169.675C217.05 170.172 216.485 169.325 215.886 168.68C213.733 166.349 211.593 164.003 209.461 161.651C207.858 159.886 206.276 158.108 204.687 156.329C204.457 156.553 204.234 156.77 204.004 156.995L204.025 157.023Z" fill="#2496FF"/>
<path d="M192.478 192.963C192.36 192.375 192.102 191.87 192.207 191.464C192.869 189.021 192.966 186.381 194.443 183.938C195.112 186.136 193.949 191.401 192.478 192.963Z" fill="#2496FF"/>
<path d="M171.823 181.557C172.513 180.044 176.136 176.725 177.718 176.158C176.84 178.588 173.885 181.29 171.823 181.557Z" fill="#2496FF"/>
<path d="M175.893 162.716C173.098 164.375 170.687 165.726 167.286 165.908C168.575 164.291 170.136 164.221 171.419 163.682C172.673 163.157 173.886 162.282 175.893 162.716Z" fill="#2496FF"/>
<path d="M236.611 185.961C234.325 185.506 232.514 183.748 231.315 180.99C232.764 181.277 235.622 183.895 236.611 185.961Z" fill="#2496FF"/>
<path d="M211.329 188.132C209.782 186.361 208.987 183.616 209.203 181.214C210.492 182.279 211.545 185.562 211.329 188.132Z" fill="#2496FF"/>
<path d="M241.692 163.548C244.145 163.114 246.284 164.095 248.73 165.012C246.869 165.915 243.936 165.306 241.692 163.548Z" fill="#2496FF"/>
<path d="M230.318 160.671C232.743 160.867 235.315 160.755 237.19 162.8C234.764 162.576 232.367 162.289 230.318 160.671Z" fill="#2496FF"/>
<path d="M193.328 122.75C194.61 124.241 195.175 126.538 194.896 129.101C193.488 127.728 192.729 124.626 193.328 122.75Z" fill="#2496FF"/>
<path d="M159.718 143.993C157.37 144.161 155.105 143.958 153.181 142.453C155.586 142.005 157.683 142.831 159.718 143.993Z" fill="#2496FF"/>
<path d="M171.098 147.522C168.875 147.522 166.805 147.004 164.924 145.799C167.328 145.134 169.293 146.037 171.098 147.522Z" fill="#2496FF"/>
<path d="M214.597 198.935C213.28 197.086 212.785 195.021 212.694 192.668C214.262 193.935 215.099 196.54 214.597 198.935Z" fill="#2496FF"/>
<path d="M222.332 172.84C223.789 174.15 225.238 175.466 226.89 176.95C224.89 177.202 222.939 175.571 221.977 173.218C222.096 173.092 222.214 172.966 222.332 172.84Z" fill="#2496FF"/>
<path d="M242.897 139.421C241.141 140.737 239.064 141.227 236.82 141.731C237.677 140.408 240.235 139.386 242.897 139.421Z" fill="#2496FF"/>
<path d="M227.029 126.215C226.27 127.917 224.995 129.128 223.496 130.122C224.103 128.302 225.218 126.937 227.029 126.215Z" fill="#2496FF"/>
<path d="M235.099 142.403C232.513 143.964 229.893 144.258 227.482 145.134C228.834 143.838 232.98 142.305 235.099 142.403Z" fill="#2496FF"/>
<path d="M189.809 203.641C189.335 201.667 189.635 200.455 190.952 198.551C191.558 199.846 191.14 201.898 189.809 203.641Z" fill="#2496FF"/>
<path d="M208.242 123.946C208.367 125.991 207.991 127.916 206.931 129.674C206.778 127.629 207.106 125.697 208.242 123.946Z" fill="#2496FF"/>
<path d="M173.223 129.828C171.565 129.282 170.095 128.532 169.119 126.439C171.307 127.09 172.561 128.105 173.223 129.828Z" fill="#2496FF"/>
<path d="M163.621 167.351C161.816 168.891 160.234 169.739 158.199 170.026C159.168 168.527 160.854 167.666 163.621 167.351Z" fill="#2496FF"/>
<path d="M216.353 137.769C217.615 135.864 219.21 134.289 221.008 132.923C221.148 133.056 221.287 133.189 221.427 133.329C219.879 134.926 218.325 136.522 216.778 138.112C216.639 138 216.5 137.881 216.353 137.769Z" fill="#2496FF"/>
<path d="M176.757 132.53C178.45 133.013 179.37 134.113 180.144 135.576C178.541 135.499 177.537 134.582 176.757 132.53Z" fill="#2496FF"/>
<path d="M166.896 185.331C166.164 186.913 165.063 188.026 163.474 188.565C163.997 186.78 165.46 186.059 166.896 185.331Z" fill="#2496FF"/>
<path d="M188.178 212.365C187.934 210.685 188.088 209.123 189.182 207.373C189.649 209.474 188.938 210.937 188.178 212.365Z" fill="#2496FF"/>
<path d="M149.063 173.996C150.052 172.792 151.167 171.923 153 172.196C151.871 173.506 150.568 173.975 149.063 173.996Z" fill="#2496FF"/>
<path d="M191.37 118.234C191.161 116.987 190.945 115.734 190.736 114.488C190.931 114.446 191.127 114.411 191.322 114.369C192.416 115.454 191.977 116.875 191.949 118.206C191.754 118.213 191.566 118.22 191.37 118.227V118.234Z" fill="#2496FF"/>
<path d="M248.653 137.04C247.364 138.16 246.918 138.328 245.246 138.286C246.312 137.124 246.709 136.977 248.653 137.04Z" fill="#2496FF"/>
<path d="M242.605 191.864C241.336 191.689 240.855 190.779 240.423 189.736C242.089 189.715 242.577 190.191 242.605 191.864Z" fill="#2496FF"/>
<path d="M209.858 115.81C210.353 117.112 209.684 118.142 209.308 119.227C208.938 117.659 209.085 116.846 209.858 115.81Z" fill="#2496FF"/>
<path d="M232.207 119.312C232.841 118.64 233.475 117.975 234.43 116.966C234.506 118.885 233.468 119.235 232.639 119.76C232.493 119.606 232.346 119.459 232.207 119.305V119.312Z" fill="#2496FF"/>
<path d="M216.737 206.189C215.831 205.244 215.587 204.431 215.907 203.248C216.778 204.074 216.974 204.9 216.737 206.189Z" fill="#2496FF"/>
<path d="M252.695 165.999C253.371 166.293 254.04 166.58 254.716 166.874L254.507 167.428C253.81 167.196 253.106 166.965 252.409 166.734C252.507 166.489 252.604 166.244 252.702 165.992L252.695 165.999Z" fill="#2496FF"/>
<path d="M211.126 109.622C210.91 110.504 210.694 111.386 210.478 112.275C210.304 112.233 210.13 112.184 209.956 112.142C210.186 111.26 210.409 110.378 210.639 109.496C210.799 109.538 210.966 109.58 211.126 109.622Z" fill="#2496FF"/>
<path d="M259.824 169.276C259.218 168.968 258.618 168.653 257.615 168.142C259.085 167.693 259.559 168.275 260.082 168.765C259.998 168.94 259.908 169.108 259.824 169.283V169.276Z" fill="#2496FF"/>
<path d="M229.147 123.667C228.987 122.693 229.454 122.245 230.437 122.049C230.534 123.086 229.844 123.387 229.147 123.667Z" fill="#2496FF"/>
<path d="M247.385 197.066C246.158 197.304 245.894 196.772 245.768 196.002C246.855 195.582 246.89 196.401 247.385 197.066Z" fill="#2496FF"/>
<path d="M187.851 102.668C187.949 103.257 188.046 103.845 188.186 104.671C187.647 104.059 187.535 103.392 187.851 102.668Z" fill="#2496FF"/>
<path d="M146.457 141.29C145.92 141.185 145.384 141.08 144.847 140.968C144.889 140.793 144.924 140.611 144.966 140.436L146.555 140.842C146.52 140.989 146.485 141.143 146.457 141.29Z" fill="#2496FF"/>
<path d="M211.328 104.692C211.461 104.307 211.593 103.929 211.719 103.543C211.858 103.578 211.997 103.606 212.137 103.641L211.956 104.867C211.746 104.811 211.537 104.748 211.328 104.692Z" fill="#2496FF"/>
<path d="M140.652 140.149C140.059 140.086 139.467 140.023 138.882 139.96C138.902 139.778 138.923 139.596 138.944 139.414C139.53 139.491 140.122 139.568 140.707 139.638C140.686 139.806 140.673 139.981 140.652 140.149Z" fill="#2496FF"/>
<path d="M189.607 110.356C189.44 110.034 189.265 109.719 189.098 109.397C189.217 109.334 189.335 109.271 189.454 109.208C189.621 109.53 189.781 109.852 189.948 110.174L189.6 110.356H189.607Z" fill="#2496FF"/>
<path d="M165.46 122.589C165.788 122.925 166.115 123.261 166.45 123.597L166.087 123.996C165.739 123.695 165.391 123.394 165.049 123.093C165.188 122.925 165.328 122.757 165.467 122.589H165.46Z" fill="#2496FF"/>
<path d="M254.465 135.143C254.04 135.318 253.615 135.486 253.19 135.661L253.023 135.227C253.448 135.066 253.88 134.905 254.305 134.744L254.458 135.143H254.465Z" fill="#2496FF"/>
</g>
<g filter="url(#filter2_d_51_53945)">
<path d="M259.703 120.844V124.844H263.703H266.875V135.141V139.141H270.875H274V166.859H270.875H266.875V170.859V181.156H263.703H259.703V185.156V195.406H256.578H252.578V199.406V202.578H249.406H245.406V206.578V209.703H235.156H231.156V213.703V216.875H220.859H216.859V220.875V224H189.141V220.875V216.875H185.141H174.844V213.703V209.703H170.844H160.547V206.578V202.578H156.547H153.422V199.406V195.406H149.422H146.297V185.156V181.156H142.297H139.125V170.859V166.859H135.125H132V139.141H135.125H139.125V135.141V124.844H142.297H146.297V120.844V110.547H149.422H153.422V106.547V103.422H156.547H160.547V99.4219V96.2969H170.844H174.844V92.2969V89.125H185.141H189.141V85.125V82H216.859V85.125V89.125H220.859H231.156V92.2969V96.2969H235.156H245.406V99.4219V103.422H249.406H252.578V106.547V110.547H256.578H259.703V120.844Z" stroke="url(#paint0_linear_51_53945)" stroke-width="8"/>
</g>
<path opacity="0.5" d="M173.477 120.666H165.042V129.101H173.477V120.666Z" fill="#0040A1"/>
<path opacity="0.5" d="M173.477 168.464H165.042V176.899H173.477V168.464Z" fill="#0040A1"/>
<path opacity="0.5" d="M249.393 137.536H240.958V145.971H249.393V137.536Z" fill="#0040A1"/>
<path opacity="0.5" d="M240.958 168.464H232.523V176.899H240.958V168.464Z" fill="#0040A1"/>
<path opacity="0.5" d="M215.653 193.77H207.218V202.205H215.653V193.77Z" fill="#0040A1"/>
<g filter="url(#filter3_d_51_53945)">
<path d="M208.207 105.168H197.793V115.582H208.207V105.168Z" fill="url(#paint1_linear_51_53945)"/>
<path d="M187.38 125.994H176.966V136.407H187.38V125.994Z" fill="url(#paint2_linear_51_53945)"/>
<path d="M197.793 115.582H187.38V125.995H197.793V115.582Z" fill="url(#paint3_linear_51_53945)"/>
<path d="M218.62 115.582H208.207V125.995H218.62V115.582Z" fill="url(#paint4_linear_51_53945)"/>
<path d="M218.62 125.994H229.034V136.407H218.62V125.994Z" fill="url(#paint5_linear_51_53945)"/>
<path d="M176.966 136.409H166.552V146.822H176.966V136.409Z" fill="url(#paint6_linear_51_53945)"/>
<path d="M229.034 136.409H239.448V146.822H229.034V136.409Z" fill="url(#paint7_linear_51_53945)"/>
<path fill-rule="evenodd" clip-rule="evenodd" d="M208.207 132.937H197.793V143.35H187.379V153.764H197.793H197.793H208.207H208.207H218.62V143.35H208.207V132.937ZM197.793 205.832V195.42H187.379V185.006H197.793H208.207H218.62V195.42H208.207V205.832H197.793ZM208.207 164.177H197.793H197.793H187.379V153.765H176.966V164.179H187.379V174.591H197.793H208.207H218.62L218.62 185.005H229.034V174.591L218.62 174.591V164.177H208.207H208.207Z" fill="url(#paint8_linear_51_53945)"/>
</g>
<path d="M208.207 102.668H197.793V113.082H208.207V102.668Z" fill="#FABB1E"/>
<path d="M187.38 123.494H176.966V133.907H187.38V123.494Z" fill="#FABB1E"/>
<path d="M197.793 113.082H187.38V123.495H197.793V113.082Z" fill="#FABB1E"/>
<path d="M218.62 113.082H208.207V123.495H218.62V113.082Z" fill="#FABB1E"/>
<path d="M218.62 123.494H229.034V133.907H218.62V123.494Z" fill="#FABB1E"/>
<path d="M176.966 133.909H166.552V144.322H176.966V133.909Z" fill="#FABB1E"/>
<path d="M229.034 133.909H239.448V144.322H229.034V133.909Z" fill="#FABB1E"/>
<path fill-rule="evenodd" clip-rule="evenodd" d="M208.207 130.437H197.793V140.85H187.379V151.264H197.793H197.793H208.207H208.207H218.62V140.85H208.207V130.437ZM197.793 203.332V192.92H187.379V182.506H197.793H208.207H218.62V192.92H208.207V203.332H197.793ZM208.207 161.677H197.793H197.793H187.379V151.265H176.966V161.679H187.379V172.091H197.793H208.207H218.62L218.62 182.505H229.034V172.091L218.62 172.091V161.677H208.207H208.207Z" fill="url(#paint9_linear_51_53945)"/>
</g>
</g>
</g>
<defs>
<filter id="filter0_d_51_53945" x="0" y="0" width="406" height="406" filterUnits="userSpaceOnUse" color-interpolation-filters="sRGB">
<feFlood flood-opacity="0" result="BackgroundImageFix"/>
<feColorMatrix in="SourceAlpha" type="matrix" values="0 0 0 0 0 0 0 0 0 0 0 0 0 0 0 0 0 0 127 0" result="hardAlpha"/>
<feOffset dy="50"/>
<feGaussianBlur stdDeviation="64"/>
<feComposite in2="hardAlpha" operator="out"/>
<feColorMatrix type="matrix" values="0 0 0 0 0 0 0 0 0 0.25098 0 0 0 0 0.631373 0 0 0 1 0"/>
<feBlend mode="normal" in2="BackgroundImageFix" result="effect1_dropShadow_51_53945"/>
<feBlend mode="normal" in="SourceGraphic" in2="effect1_dropShadow_51_53945" result="shape"/>
</filter>
<filter id="filter1_f_51_53945" x="129.007" y="81.4648" width="145.479" height="145.521" filterUnits="userSpaceOnUse" color-interpolation-filters="sRGB">
<feFlood flood-opacity="0" result="BackgroundImageFix"/>
<feBlend mode="normal" in="SourceGraphic" in2="BackgroundImageFix" result="shape"/>
<feGaussianBlur stdDeviation="2" result="effect1_foregroundBlur_51_53945"/>
</filter>
<filter id="filter2_d_51_53945" x="124" y="78" width="158" height="158" filterUnits="userSpaceOnUse" color-interpolation-filters="sRGB">
<feFlood flood-opacity="0" result="BackgroundImageFix"/>
<feColorMatrix in="SourceAlpha" type="matrix" values="0 0 0 0 0 0 0 0 0 0 0 0 0 0 0 0 0 0 127 0" result="hardAlpha"/>
<feOffset dy="4"/>
<feGaussianBlur stdDeviation="2"/>
<feColorMatrix type="matrix" values="0 0 0 0 0 0 0 0 0 0 0 0 0 0 0 0 0 0 0.25 0"/>
<feBlend mode="normal" in2="BackgroundImageFix" result="effect1_dropShadow_51_53945"/>
<feBlend mode="normal" in="SourceGraphic" in2="effect1_dropShadow_51_53945" result="shape"/>
</filter>
<filter id="filter3_d_51_53945" x="166.052" y="105.168" width="73.8955" height="103.164" filterUnits="userSpaceOnUse" color-interpolation-filters="sRGB">
<feFlood flood-opacity="0" result="BackgroundImageFix"/>
<feColorMatrix in="SourceAlpha" type="matrix" values="0 0 0 0 0 0 0 0 0 0 0 0 0 0 0 0 0 0 127 0" result="hardAlpha"/>
<feOffset dy="2"/>
<feGaussianBlur stdDeviation="0.25"/>
<feComposite in2="hardAlpha" operator="out"/>
<feColorMatrix type="matrix" values="0 0 0 0 0 0 0 0 0 0 0 0 0 0 0 0 0 0 0.55 0"/>
<feBlend mode="normal" in2="BackgroundImageFix" result="effect1_dropShadow_51_53945"/>
<feBlend mode="normal" in="SourceGraphic" in2="effect1_dropShadow_51_53945" result="shape"/>
</filter>
<linearGradient id="paint0_linear_51_53945" x1="203" y1="78" x2="203" y2="228" gradientUnits="userSpaceOnUse">
<stop stop-color="#FABB1E"/>
<stop offset="1" stop-color="#A55921"/>
</linearGradient>
<linearGradient id="paint1_linear_51_53945" x1="203" y1="105.168" x2="203" y2="115.582" gradientUnits="userSpaceOnUse">
<stop stop-color="#D70F0F"/>
<stop offset="1" stop-color="#690505"/>
</linearGradient>
<linearGradient id="paint2_linear_51_53945" x1="182.173" y1="125.994" x2="182.173" y2="136.407" gradientUnits="userSpaceOnUse">
<stop stop-color="#D70F0F"/>
<stop offset="1" stop-color="#690505"/>
</linearGradient>
<linearGradient id="paint3_linear_51_53945" x1="192.586" y1="115.582" x2="192.586" y2="125.995" gradientUnits="userSpaceOnUse">
<stop stop-color="#D70F0F"/>
<stop offset="1" stop-color="#690505"/>
</linearGradient>
<linearGradient id="paint4_linear_51_53945" x1="213.414" y1="115.582" x2="213.414" y2="125.995" gradientUnits="userSpaceOnUse">
<stop stop-color="#D70F0F"/>
<stop offset="1" stop-color="#690505"/>
</linearGradient>
<linearGradient id="paint5_linear_51_53945" x1="223.827" y1="125.994" x2="223.827" y2="136.407" gradientUnits="userSpaceOnUse">
<stop stop-color="#D70F0F"/>
<stop offset="1" stop-color="#690505"/>
</linearGradient>
<linearGradient id="paint6_linear_51_53945" x1="171.759" y1="136.409" x2="171.759" y2="146.822" gradientUnits="userSpaceOnUse">
<stop stop-color="#D70F0F"/>
<stop offset="1" stop-color="#690505"/>
</linearGradient>
<linearGradient id="paint7_linear_51_53945" x1="234.241" y1="136.409" x2="234.241" y2="146.822" gradientUnits="userSpaceOnUse">
<stop stop-color="#D70F0F"/>
<stop offset="1" stop-color="#690505"/>
</linearGradient>
<linearGradient id="paint8_linear_51_53945" x1="203" y1="132.937" x2="203" y2="205.832" gradientUnits="userSpaceOnUse">
<stop stop-color="#D70F0F"/>
<stop offset="1" stop-color="#690505"/>
</linearGradient>
<linearGradient id="paint9_linear_51_53945" x1="203" y1="130.437" x2="203" y2="203.332" gradientUnits="userSpaceOnUse">
<stop stop-color="#FABB1E"/>
<stop offset="1" stop-color="#A55921"/>
</linearGradient>
</defs>
</svg>
