<svg width="12" height="12" viewBox="0 0 12 12" fill="none" xmlns="http://www.w3.org/2000/svg">
<path d="M9.49718 3.50879H8.99854V11.0001H9.49718V3.50879Z" fill="white"/>
<path d="M12.0001 1H11.5015V8.49135H12.0001V1Z" fill="white"/>
<path d="M8.99864 11H8.5V11.5019H8.99864V11Z" fill="white"/>
<path d="M11.5016 8.49121H11.0029V8.99313H11.5016V8.49121Z" fill="white"/>
<path d="M11.0028 8.98926H10.5042V9.49118H11.0028V8.98926Z" fill="white"/>
<path d="M8.49982 11.502H1.00049V12.0006H8.49982V11.502Z" fill="white"/>
<path d="M8.49983 2.50879H1.00049V3.00743H8.49983V2.50879Z" fill="white"/>
<path d="M11.0028 0H3.50342V0.498643H11.0028V0Z" fill="white"/>
<path d="M1.0007 11H0.498779V11.5019H1.0007V11Z" fill="white"/>
<path d="M1.0007 3.00684H0.498779V3.50876H1.0007V3.00684Z" fill="white"/>
<path d="M3.50363 0.498047H3.00171V0.999971H3.50363V0.498047Z" fill="white"/>
<path d="M3.00485 1H2.50293V1.50192H3.00485V1Z" fill="white"/>
<path d="M8.99875 3.00684H8.49683V3.50876H8.99875V3.00684Z" fill="white"/>
<path d="M11.5017 0.498047H10.9998V0.999971H11.5017V0.498047Z" fill="white"/>
<path d="M0.498643 3.50879H0V11.0001H0.498643V3.50879Z" fill="white"/>
</svg>
