<svg width="52" height="51" viewBox="0 0 52 51" fill="none" xmlns="http://www.w3.org/2000/svg">
<path d="M4.6731 26.4468L6.33572 26.4942L6.33565 27.6712L4.70427 27.67L4.6731 26.4468Z" fill="#C9C7BF"/>
<path d="M2.05038 38.2461L3.58807 38.2714L3.61353 39.5925L4.43293 39.5949L2.04956 39.634L2.05038 38.2461Z" fill="#B0CBE4"/>
<path d="M0.543945 41.2363L5.11137 41.2319L3.55133 41.2557L3.55385 42.629H2.04986L2.05291 41.255L0.543945 41.2363Z" fill="#B0CBE4"/>
<path d="M7.88989 13.2314L9.52721 13.232L9.52803 14.6596L7.89041 14.6732L7.88989 13.2314Z" fill="#B0CBE4"/>
<path d="M12.4993 4.88086L14.0327 4.88502L14.0563 4.91493L14.0555 6.40244L12.4993 6.40103V4.88086Z" fill="#FEFEFE"/>
<path d="M49.8344 30.0087L51.416 30.0083L51.4148 31.5549L49.8325 31.5712L49.8344 30.0087Z" fill="#FEFEFE"/>
<path d="M23.4788 45.8977L25.0079 45.8633L24.9966 47.5284L23.4847 47.5292L23.4788 45.8977Z" fill="#C9C7BF"/>
<path d="M0.544071 29.9336L2.06788 29.9316L2.10455 31.5679L0.541992 31.5681L0.544071 29.9336Z" fill="#FEFEFE"/>
<path d="M9.52588 11.6228L10.9779 11.5615C11.1679 12.0704 11.0849 12.6947 11.0921 13.2322L9.52729 13.2319L9.52588 11.6228Z" fill="#FEFEFE"/>
<path d="M20.062 4.88037L21.7348 4.88156L21.7501 6.40188L20.0393 6.40225L20.0439 6.17101L20.062 4.88037Z" fill="#FEFEFE"/>
<path d="M38.1053 4.84753L39.7031 4.84033L39.7033 6.39577L38.0256 6.39562L38.0401 5.3089L38.1053 4.84753Z" fill="#FEFEFE"/>
<path d="M6.56347 28.0214L8.08476 28.0122L8.08038 29.7493L6.55664 29.7488L6.56347 28.0214Z" fill="#CA7706"/>
<path d="M23.4822 28.0029L24.9678 28.004L24.9669 29.7919L23.4843 29.7856L23.4822 28.0029Z" fill="#CA7706"/>
<path d="M0.321777 13.0796L1.99205 13.0797L1.98069 14.6872L0.322446 14.6699L0.321777 13.0796Z" fill="#FEFEFE"/>
<path d="M25.1176 9.70829L26.8002 9.70703L26.7783 11.325L26.7594 11.3239L25.142 11.3289L25.1172 11.3003L25.1176 9.70829Z" fill="#FEFEFE"/>
<path d="M23.4746 8.03633L25.12 8.03418L25.1175 9.70809L23.4747 9.69748L23.4746 8.03633Z" fill="#FEFEFE"/>
<path d="M6.26562 14.6528L7.89047 14.6732L7.89433 16.3508L6.31922 16.3473L6.30282 16.3224L6.26562 14.6528Z" fill="#FEFEFE"/>
<path d="M21.7502 6.40154L23.4508 6.3999L23.4747 8.03625L21.7691 8.03818L21.7556 7.68238L21.7502 6.40154Z" fill="#FEFEFE"/>
<path d="M14.6567 28.0049L16.2459 28.0039L16.213 29.7862L14.6584 29.7869L14.6567 28.0049Z" fill="#9C4A00"/>
<path d="M20.0395 6.40223L21.7503 6.40186L21.7556 7.6827L21.7506 8.01452L20.0334 8.03702L20.0395 6.40223Z" fill="#002151"/>
<path d="M9.60303 28.0044L11.23 28.0024L11.2411 29.7533L9.60444 29.7829L9.60303 28.0044Z" fill="#EFC278"/>
<path d="M26.8267 28.0001L28.6057 27.9946L28.6077 29.784L26.8206 29.7797L26.8267 28.0001Z" fill="#7A3300"/>
<path d="M24.9677 28.0041L26.8267 28.0005L26.8205 29.78L26.7951 29.7907L24.9668 29.7921L24.9677 28.0041Z" fill="#9C4A00"/>
<path d="M45.6042 24.9609L46.0461 24.9595L46.1086 26.4433L47.2751 26.4416L47.2759 28.0038L45.5803 27.9886L45.6042 24.9609Z" fill="#4085DB"/>
<path d="M34.0265 19.7269L35.7356 19.7246L35.734 21.2554L32.6123 21.2532L32.5974 19.7528L34.0265 19.7269Z" fill="#FEFEFE"/>
<path d="M9.6144 47.4351L9.62449 47.4634L9.63718 48.9474L10.5379 48.9497L11.2359 48.9831L11.243 50.498L9.62501 50.4999L9.60912 48.975L8.07886 48.9757L8.08584 47.4737L8.10751 47.4513L9.6144 47.4351Z" fill="#FEFEFE"/>
<path d="M16.2766 19.7261L19.5511 19.7273L19.5501 21.2651L17.9888 21.2726L16.2788 21.2699L16.2766 19.7261Z" fill="#FEFEFE"/>
<path d="M17.9861 17.3882L21.8112 17.3897L21.8056 18.7768L17.9877 18.7665L17.9861 17.3882Z" fill="#FBBB1F"/>
<path d="M43.972 15.0867L45.6058 15.0859L45.6424 16.6869L47.276 16.6431L47.2696 17.4098L47.2372 18.316L45.6042 18.3167L45.6049 16.72L43.9754 16.7218L43.968 16.3758L43.972 15.0867Z" fill="#FEFEFE"/>
<path d="M21.769 8.03855L23.4747 8.03662L23.4747 9.69776L25.1175 9.70838L25.1172 11.3004L23.4847 11.3026L23.4477 9.7259L21.7731 9.74386L21.769 8.03855Z" fill="#002151"/>
<path d="M30.8135 17.4255L34.0256 17.4253L34.0266 19.7269L32.5976 19.7528L32.6172 18.7625L30.8311 18.7617L30.8135 17.4255Z" fill="#FBBB1F"/>
<path d="M26.8242 45.8267L28.607 45.8311L28.6091 47.5303L24.9966 47.5284L25.0079 45.8633L25.035 45.8564L26.8242 45.8267Z" fill="#CA7706"/>
<path d="M41.0814 11.7131L42.1166 11.709L42.1322 13.3787L43.9738 13.3787L43.9719 15.0868L42.1185 15.0898L42.1047 14.0283L42.0959 13.3897C41.2775 13.3317 40.4803 13.361 39.6619 13.3834L39.6625 11.7462L41.0814 11.7131Z" fill="#FEFEFE"/>
<path d="M4.43278 39.5949L5.11114 39.583L5.11128 41.2319L0.543861 41.2363L0.533691 39.6225L2.04941 39.6339L4.43278 39.5949Z" fill="#FEFEFE"/>
<path d="M39.7033 6.39566L41.0774 6.40137L41.0813 11.7131L39.6625 11.7462L39.6665 6.42862L38.037 6.42594L38.0256 6.39551L39.7033 6.39566Z" fill="#B0CBE4"/>
<path d="M23.4255 14.6374L28.559 14.6211L28.551 16.3041L23.4407 16.3108L23.4255 14.6374Z" fill="#FEFEFE"/>
<path d="M23.4407 16.3105L28.551 16.3037L28.5404 18.2101L23.4415 18.2068L23.4407 16.3105Z" fill="#FBBB1F"/>
<path d="M37.324 24.887L43.9812 24.8853L43.9766 26.4149L37.3179 26.4283L37.324 24.887Z" fill="#FBBB1F"/>
<path d="M10.9877 6.40348L12.4995 6.40088L12.5171 13.2327L11.0922 13.2322C11.0851 12.6947 11.1681 12.0704 10.978 11.5615L10.9877 6.40348Z" fill="#B0CBE4"/>
<path d="M48.4624 38.2856H49.8699L49.8906 39.5666L51.397 39.564V40.9965L49.8757 41.0172L49.8539 42.3527L48.463 42.347L48.4631 41.017L46.8652 40.991L46.8655 39.5865L48.4621 39.5597L48.4624 38.2856Z" fill="#FEFEFE"/>
<path d="M7.90811 24.8867L14.6536 24.8862L14.6534 26.4475L7.89697 26.436L7.90811 24.8867Z" fill="#FBBB1F"/>
<path d="M30.2012 4.85059L31.5904 4.85378L32.0188 4.88837L31.9911 6.40097L31.9827 8.03383L30.2267 8.00741L30.1994 8.02069L28.4808 8.03561L28.4661 9.70656L26.8174 9.70448L26.8233 8.03472L28.4651 8.03368L28.4813 6.41968L30.2006 6.36705L30.2012 4.85059Z" fill="#FEFEFE"/>
<path d="M31.9912 6.40137L31.9828 8.03423L30.2268 8.0078C30.2994 7.46834 30.2813 6.94165 30.2085 6.40322L31.9912 6.40137Z" fill="#002151"/>
<path d="M37.918 28.0044H42.3298L42.3128 31.4916L40.1872 31.4979C40.171 31.1164 40.2382 30.1444 40.0616 29.8554C39.9877 29.8014 39.9305 29.7689 39.8354 29.7614C39.613 29.7437 39.371 29.7799 39.146 29.7836C38.7377 29.7904 38.3285 29.7864 37.92 29.7855L37.918 28.0044Z" fill="#7A3300"/>
<path d="M16.2789 21.27L17.9889 21.2727L17.9886 28.0054L16.2458 28.004L16.2789 21.27Z" fill="#FBBB1F"/>
<path d="M21.7556 7.68262L21.7691 8.03842L21.7731 9.74374L23.4478 9.72577L23.4848 11.3024L25.1172 11.3003L25.142 11.3289L25.1346 13.0847L21.7379 13.0836L21.7397 9.74455L20.0305 9.74307L20.0334 8.03694L21.7505 8.01444L21.7556 7.68262Z" fill="#FBBB1F"/>
<path d="M47.2372 18.3163L47.2696 17.4102L47.2701 18.2658L48.7939 18.279L48.8092 24.9982L47.2921 25.0147L47.2751 26.4417L46.1086 26.4434L46.0461 24.9595L47.2385 24.9607L47.2372 18.3163Z" fill="#B0CBE4"/>
<path d="M4.66406 6.6248L6.26136 6.62354L6.28141 8.14616L7.77716 8.17147L7.82355 9.7805L6.29922 9.77983L6.29818 11.3011L4.66607 11.2924L4.66384 9.76825L3.18591 9.75883L3.13892 8.18803L4.66473 8.16271L4.66406 6.6248Z" fill="#FEFEFE"/>
<path d="M45.6837 6.54972L47.2374 6.54883L47.2672 8.10649L48.7594 8.13611L48.7383 9.70587L47.2627 9.70632L47.2424 11.1931L47.1698 11.2283L45.6432 11.227L45.6288 9.68056L44.0451 9.68939L44.0444 8.11332L45.6405 8.0687L45.6837 6.54972Z" fill="#FEFEFE"/>
<path d="M6.30347 19.7256L14.665 19.7272L14.6565 21.2873L6.32514 21.2691L6.30777 20.4661L6.30347 19.7256Z" fill="#FEFEFE"/>
<path d="M37.2893 19.7256L45.6068 19.7268L45.6076 21.2708L37.301 21.3167L37.2893 19.7256Z" fill="#FEFEFE"/>
<path d="M19.5501 21.2651L19.5498 29.8169L17.9888 29.7984L17.9885 28.0053L17.9888 21.2726L19.5501 21.2651Z" fill="#CA7706"/>
<path d="M25.1894 0.5L26.7872 0.500446L26.7863 1.96903L28.2561 1.9446L28.2554 3.50783L26.7864 3.50909L26.7919 6.37803L25.1528 6.4032L25.153 3.47094L23.6307 3.47005L23.6304 1.97237L25.1896 1.94586L25.1894 0.5Z" fill="#FEFEFE"/>
<path d="M21.2253 24.8833L31.0325 24.8852L31.0214 26.4528L21.2241 26.447L21.2253 24.8833Z" fill="#FBBB1F"/>
<path d="M21.2026 19.6895L31.012 19.724L31.0078 20.6543L30.9919 21.3231L21.2178 21.3236L21.2026 19.6895Z" fill="#FEFEFE"/>
<path d="M6.30273 16.3223L6.31913 16.3472L6.31936 18.2439L4.72101 18.2414L4.71515 24.9624L6.33353 24.9551L6.33554 26.4942L4.67291 26.4467L4.68353 24.9881L3.14205 24.962L3.1416 18.2051L4.70097 18.2055L4.70052 16.3498L6.30273 16.3223Z" fill="#B0CBE4"/>
<path d="M38.037 6.42627L39.6665 6.42894L39.6625 11.7465L39.6618 13.3837C40.4803 13.3613 41.2775 13.3319 42.0958 13.39L42.1047 14.0285L42.0813 14.6028L38.0339 14.6414L38.037 6.42627Z" fill="#002151"/>
<path d="M45.6076 21.2705L45.6082 23.3951L37.3269 23.379L37.301 21.3164L45.6076 21.2705Z" fill="#4085DB"/>
<path d="M6.30782 20.4663L6.32519 21.2693L14.6565 21.2875L14.6511 23.3499L6.2981 23.387L6.30782 20.4663Z" fill="#4085DB"/>
<path d="M14.0545 3.3208L20.0348 3.33045L20.062 4.88024L20.0439 6.17088L20.0393 6.40212L14.0555 6.40242L14.0563 4.91491L14.0327 4.88499L14.0545 3.3208Z" fill="#B0CBE4"/>
<path d="M14.0565 4.9151L20.036 4.90479L20.0441 6.17108L20.0395 6.40232L14.0557 6.40261L14.0565 4.9151Z" fill="#002151"/>
<path d="M32.0032 3.32188L38.0299 3.32129L38.1053 4.8474L38.0401 5.30877L38.0257 6.39549L31.9912 6.40098L32.019 4.88838L31.5906 4.85378L31.9358 4.8206C32.1234 4.44668 31.9898 3.74242 32.0032 3.32188Z" fill="#B0CBE4"/>
<path d="M32.019 4.88867L38.0187 4.89602L38.0401 5.30906L38.0257 6.39578L31.9912 6.40127L32.019 4.88867Z" fill="#002151"/>
<path d="M12.4995 6.40088L14.0557 6.40229L14.0195 14.6792L9.52876 14.6773L9.5266 16.3501L7.89449 16.3506L7.89062 14.673L9.52824 14.6595L9.52742 13.2319L11.0922 13.2322L12.5171 13.2327L12.4995 6.40088Z" fill="#002151"/>
<path d="M31.0078 20.6543L30.9835 23.3586L21.2366 23.3731L21.2178 21.3236L30.9919 21.3231L31.0078 20.6543Z" fill="#4085DB"/>
<path d="M21.9372 45.8279L21.9545 43.5386L21.9625 47.5138L9.62463 47.4633L9.61453 47.4349L9.61401 45.8511L11.2726 45.8537L21.9372 45.8279Z" fill="#CA7706"/>
<path d="M23.4805 31.4917L24.9945 31.4947L25.0351 45.8563L25.0079 45.8631L23.4788 45.8976L23.4805 31.4917Z" fill="#FEFEFE"/>
<path d="M9.52866 14.6772L14.0194 14.6792L14.0231 16.3249L16.3576 16.328L16.3584 18.2081L7.89209 18.2093L7.89439 16.3506L9.52651 16.3501L9.52866 14.6772Z" fill="#4085DB"/>
<path d="M32.6123 21.2534L35.734 21.2556L35.71 28.0281L34.0622 28.0029L34.0612 29.899L32.6303 29.8775L32.6123 21.2534Z" fill="#FBBB1F"/>
<path d="M42.0813 14.6026L42.1047 14.0283L42.1185 15.0899L43.9719 15.0868L43.968 16.376L43.9753 16.7219L43.9736 18.19L35.5816 18.2093L35.5815 16.3478L38.0319 16.3498L38.034 14.6412L42.0813 14.6026Z" fill="#4085DB"/>
<path d="M43.972 15.0869L43.968 16.3761L42.1157 16.3815L42.1185 15.09L43.972 15.0869Z" fill="#002151"/>
<path d="M24.9944 31.4951L26.7888 31.4961L26.8242 45.8269L25.035 45.8567L24.9944 31.4951Z" fill="#FEE259"/>
<path d="M6.55664 29.7485L8.08038 29.749L8.10755 47.4513L8.08587 47.4736L6.55716 47.4713L6.55664 29.7485Z" fill="#B0CBE4"/>
<path d="M20.0393 6.40186L20.0333 8.03665L15.5055 8.05513L15.4919 13.1203L17.8067 13.0986L17.8051 14.6255L21.7974 14.6263L21.7942 16.3507L16.3571 16.3257L16.3554 14.72L14.0193 14.6791L14.0555 6.40215L20.0393 6.40186Z" fill="#FBBB1F"/>
<path d="M43.8602 28.0049L45.5835 28.0044L45.5317 47.4903L43.9166 47.5623L43.8933 47.985L43.8589 47.4547L43.8602 28.0049Z" fill="#4085DB"/>
<path d="M26.8206 29.7798L28.6077 29.7841L28.6081 31.493L28.607 45.8311L26.8243 45.8266L26.7889 31.4958L24.9945 31.4948L23.4805 31.4918L23.4874 29.8138L23.4843 29.7855L24.9669 29.7918L26.7952 29.7905L26.8206 29.7798Z" fill="#FBBB1F"/>
<path d="M23.4874 29.814L24.9692 29.8238L24.9945 31.495L23.4805 31.492L23.4874 29.814Z" fill="#FEE259"/>
<path d="M26.8206 29.7798L28.6077 29.7841L28.6081 31.493L26.8215 31.4913L26.7952 29.7905L26.8206 29.7798Z" fill="#CA7706"/>
<path d="M40.1873 31.4981L42.3128 31.4917L42.3106 45.7483L42.3249 47.4602L42.3014 47.4827L40.113 47.5003L37.8849 47.4923L37.8845 45.7635L40.09 45.7456L40.0739 44.0375L40.0806 43.9992C40.1681 43.6577 40.1089 43.207 40.1126 42.8518C40.1173 42.3988 40.1476 41.9458 40.1454 41.4929C40.1431 40.9987 40.1141 40.5047 40.1121 40.0101C40.105 38.1905 40.0801 36.3631 40.115 34.5442C40.1233 34.109 40.162 33.6749 40.1732 33.2397L40.1781 32.9594L40.1873 31.4981Z" fill="#9C4A00"/>
<path d="M40.1045 45.7471L42.3105 45.7482L42.3248 47.46L42.3013 47.4825L40.1129 47.5001L40.1045 45.7471Z" fill="#7A3300"/>
<path d="M31.9913 6.401L38.0257 6.39551L38.0371 6.42594L38.034 14.6411L35.1379 14.6442L35.1404 16.3507L30.2007 16.3497L30.201 14.6419L33.8745 14.6408L33.8742 13.0819L36.5469 13.082L36.5721 8.05606L32.0179 8.05145L32.0224 9.744L30.2367 9.74303L30.2396 13.047L26.8073 13.0449L26.7595 11.3236L26.7785 11.3247L28.4556 11.2981L28.4831 9.70718L30.2014 9.70904L30.1995 8.02072L30.2269 8.00743L31.9829 8.03386L31.9913 6.401Z" fill="#FBBB1F"/>
<path d="M42.3249 47.4603L43.8588 47.4546L43.8932 47.9848L43.8765 49.0492L42.3376 49.0496L42.34 50.4977L11.2431 50.4981L11.236 48.9832L10.5381 48.9498L42.301 49.0358L42.3014 47.4828L42.3249 47.4603Z" fill="#B0CBE4"/>
<path d="M37.2162 28.0029L37.918 28.0045L37.9201 29.7856C38.3285 29.7865 38.7377 29.7905 39.146 29.7837C39.371 29.78 39.6131 29.7438 39.8354 29.7615C39.9305 29.769 39.9877 29.8015 40.0616 29.8555C40.2382 30.1445 40.171 31.1165 40.1873 31.498L40.1781 32.9593L40.1732 33.2396C40.162 33.6749 40.1233 34.1089 40.115 34.5442C40.0801 36.3631 40.105 38.1904 40.1121 40.01C40.1141 40.5047 40.1431 40.9986 40.1454 41.4929C40.1475 41.9457 40.1173 42.3988 40.1126 42.8517C40.1089 43.207 40.1681 43.6576 40.0806 43.9991L40.0739 44.0374L40.0899 45.7456L37.8845 45.7634L37.8849 47.4922L30.2286 47.5287L30.2205 45.8218L30.1851 29.7617L31.5762 29.7644L31.5764 31.4738L35.6201 31.4749L35.6375 29.8067L37.1922 29.7841L37.2162 28.0029Z" fill="#FBBB1F"/>
<path d="M34.3594 37.5098L35.9524 37.5101L35.9525 39.4095L34.3604 39.4097L34.3594 37.5098Z" fill="#002151"/>
<path d="M37.8994 44.0435L40.0739 44.0376L40.0899 45.7457L37.8845 45.7636L37.8849 47.4924L30.2286 47.5288L30.2205 45.822L37.8837 45.7499L37.8994 44.0435Z" fill="#CA7706"/>
<path d="M37.9201 29.7858C38.3285 29.7867 38.7377 29.7907 39.1461 29.7839C39.371 29.7802 39.6131 29.744 39.8354 29.7617C39.9305 29.7692 39.9877 29.8017 40.0616 29.8557C40.2382 30.1447 40.171 31.1167 40.1873 31.4982L40.1781 32.9595L40.1732 33.2398C40.162 33.6751 40.1233 34.1091 40.115 34.5444C40.0801 36.3633 40.105 38.1906 40.1121 40.0102C40.1141 40.5049 40.1431 40.9988 40.1454 41.4931C40.1476 41.9459 40.1173 42.399 40.1126 42.8519C40.1089 43.2072 40.1681 43.6578 40.0806 43.9993L40.0739 44.0376L37.8994 44.0436L37.8904 42.3999L38.461 42.3975L37.9008 42.3677L37.9201 29.7858Z" fill="#CA7706"/>
<path d="M38.6245 31.5297L40.1595 31.5225L40.1781 32.9594L40.1732 33.2397L38.6253 33.2484L38.6245 31.5297Z" fill="#FEFEFE"/>
<path d="M38.461 42.3975L40.0822 42.4076L40.0806 43.9993L40.0739 44.0376L37.8994 44.0435L37.8904 42.3998L38.461 42.3975Z" fill="#FEFEFE"/>
<path d="M11.2301 28.0024L14.6567 28.005L14.6584 29.7869L16.213 29.7862L16.2099 31.4738L19.957 31.4759L19.9419 29.7858L21.9626 29.7717L21.9545 43.5387L21.9371 45.8281L11.2725 45.8539L9.61399 45.8512L9.60449 29.7829L11.2411 29.7533L11.2301 28.0024Z" fill="#FBBB1F"/>
<path d="M16.1375 37.4355H17.6944L17.6922 39.4351L16.1475 39.4375L16.1375 37.4355Z" fill="#002151"/>
<path d="M9.60449 29.783L11.2411 29.7534L11.2519 31.4928L13.003 31.4939L13.0032 33.4255L11.2724 33.4245L11.2937 42.5543L13.0173 42.555L13.0159 44.3588L11.2742 44.3591L11.2725 45.854L9.61399 45.8514L9.60449 29.783Z" fill="#FEFEFE"/>
</svg>
