<svg width="51" height="51" viewBox="0 0 51 51" fill="none" xmlns="http://www.w3.org/2000/svg">
<path d="M38.7458 31.2568L39.7529 31.2647L39.7552 32.6924L38.7578 32.7002L38.7302 31.2628L38.7458 31.2568Z" fill="#FABB1E"/>
<path d="M43.1127 47.6343L43.1157 49.0954L41.7283 49.0989L41.7308 48.2081L42.1171 48.1754L42.1797 47.6458L43.1127 47.6343Z" fill="#0040A1"/>
<path d="M1.77035 23.9644L2.97055 23.9666L2.99378 25.4781L1.74976 25.4813L1.77035 23.9644Z" fill="#0040A1"/>
<path d="M9.89029 46.2524L9.91798 47.1202L9.92568 47.8312L9.9192 48.35L8.47762 48.3228L8.4292 48.1984L8.43035 47.0985L9.87813 47.097L9.89029 46.2524Z" fill="#0040A1"/>
<path d="M11.3708 3.87402L12.73 3.88341L12.7768 4.09325C12.7626 4.33773 12.7019 5.09455 12.7978 5.28379L12.8475 5.30547L12.7215 5.32275L11.3992 5.32877L11.3708 3.87402Z" fill="#0040A1"/>
<path d="M21.4594 12.52L22.918 12.5202L22.9122 13.9497L21.459 13.9467L21.4594 12.52Z" fill="#BC5615"/>
<path d="M9.90866 13.937L9.93648 13.9378L9.95526 13.9754L9.94884 15.3999L8.50146 15.4007L8.5016 13.9933L9.90866 13.937Z" fill="#FEFC08"/>
<path d="M47.5752 15.4033L48.8845 15.404L48.8857 16.8435L47.3984 16.8479L47.4318 15.4204L47.5752 15.4033Z" fill="#0040A1"/>
<path d="M11.4385 26.7936L12.8571 26.7627L12.8525 28.3254L11.4019 28.3258L11.4089 26.8141L11.4385 26.7936Z" fill="white"/>
<path d="M47.432 24.0625L48.8834 24.062L48.8783 25.5565L47.8721 25.5659L47.8768 26.8613L47.4484 26.8382L47.4221 26.7775L47.432 24.0625Z" fill="#0040A1"/>
<path d="M46.2044 31.2242L48.4089 31.2236L48.4064 32.781H46.1987L46.2044 31.2242Z" fill="white"/>
<path d="M1.75073 16.8502L4.17449 16.8457L4.19306 18.2093L4.19138 18.2447L4.56269 18.2665L4.1416 18.2859L2.99469 18.293L1.77255 18.2936L1.75073 16.8502Z" fill="#0040A1"/>
<path d="M24.3767 6.76884L27.182 6.7627V8.19191L24.3939 8.1963L23.812 8.18975L24.3759 8.16719L24.3767 6.76884Z" fill="#0040A1"/>
<path d="M24.3582 12.5249L27.2145 12.5285L27.2044 13.9711L24.3516 13.9709L24.3582 12.5249Z" fill="#FABB1E"/>
<path d="M30.1407 3.86979L31.5959 3.86621L31.5959 5.27017L30.115 5.29617L28.6892 5.31055L28.6975 3.8706L30.1407 3.86979Z" fill="#0040A1"/>
<path d="M30.1405 3.86979L31.5957 3.86621L31.5958 5.27017L30.1401 5.26179L30.1405 3.86979Z" fill="#002050"/>
<path d="M5.63674 12.5176L7.09188 12.5185L7.10431 14.3182L7.09789 15.3934L5.98333 15.3975L5.69326 15.367C5.54023 15.1423 5.63059 14.7008 5.63478 14.434L5.63674 12.5176Z" fill="#0040A1"/>
<path d="M11.4028 41.3262L12.8603 41.328L12.882 41.948L12.8841 44.2278L12.2411 44.2328L11.4051 44.2282L11.4028 41.3262Z" fill="#0CAEFE"/>
<path d="M25.1987 28.2939L28.6451 28.3102L28.649 32.7986L28.6143 31.2204L27.2104 31.2032L27.2032 28.3251L25.1987 28.2939Z" fill="#BC5615"/>
<path d="M3.23525 12.5188L5.63679 12.5176L5.63483 14.434L3.23315 14.4235L3.23525 12.5188Z" fill="white"/>
<path d="M3.12379 37.3022L5.26024 37.3048L5.25977 39.5035L3.10913 39.5012L3.12379 37.3022Z" fill="white"/>
<path d="M41.9004 7.24365L44.046 7.24406L44.0525 9.6691L41.8982 9.64843L41.9004 7.24365Z" fill="white"/>
<path d="M2.9939 25.4781L4.20287 25.4771L4.21705 29.7968L2.99457 29.809L2.9939 25.4781Z" fill="#0040A1"/>
<path d="M46.9746 12.5088L47.4267 12.5157L47.4389 14.8753L45 14.8819L45.0018 12.5177L46.9746 12.5088Z" fill="white"/>
<path d="M46.3212 37.1807L48.407 37.1807L48.4048 39.7022L46.1036 39.7036C46.107 39.3585 46.045 37.3767 46.1507 37.2053L46.3212 37.1807Z" fill="white"/>
<path d="M41.1767 12.5137L41.6854 12.5222L41.6848 13.9374L41.5662 13.9532L37.3355 13.9666L37.3311 12.5162L41.1767 12.5137Z" fill="white"/>
<path d="M11.4019 28.3255L12.8526 28.3252L12.8457 31.2642L12.8418 31.2831L12.8441 32.7083L12.8213 32.7194L11.4089 32.722L11.3953 32.7499L11.4019 28.3255Z" fill="#6FC5F6"/>
<path d="M11.4026 31.2637L12.8417 31.2833L12.844 32.7085L12.8212 32.7196L11.4088 32.7223L11.4026 31.2637Z" fill="white"/>
<path d="M4.17523 31.2578L7.03474 31.2674L7.01279 33.6571L4.16382 33.6549L4.17523 31.2578Z" fill="white"/>
<path d="M24.3665 2.71094L27.2054 2.71837L27.2044 3.84096L27.1947 5.31232L24.4272 5.31002L24.3815 5.27193L24.367 4.03898L24.3665 2.71094Z" fill="white"/>
<path d="M1.77267 18.2939L1.77037 23.9645L0.324546 23.9658L0.321777 18.2996L1.77267 18.2939Z" fill="#0040A1"/>
<path d="M41.685 13.9375L43.0734 13.9377L43.0844 15.4264L41.6548 15.4249L37.3413 15.4075L37.3357 13.9667L41.5664 13.9533L41.685 13.9375Z" fill="#FABB1E"/>
<path d="M48.8858 16.8433L49.4264 16.8539L49.425 18.2923L50.4649 18.2935L50.4766 24.0747L48.8833 24.0621L48.8851 18.3208L48.8858 16.8433Z" fill="#0040A1"/>
<path d="M7.47885 5.41024L9.00978 5.40869L9.00822 7.11953L10.8372 7.1194L10.8452 9.58071L9.04064 9.58145L9.04652 10.6479C8.76894 10.6502 7.64567 10.7152 7.48784 10.606L7.51701 9.14205L8.97412 9.13969L8.97479 7.15654L7.54929 7.15681L7.5185 8.71171L5.83447 8.72049L5.83325 7.11595L7.48365 7.11386L7.47885 5.41024Z" fill="white"/>
<path d="M11.4089 32.7224L12.8213 32.7197L12.8605 41.3281L11.403 41.3263L11.3953 32.7502L11.4089 32.7224Z" fill="#6FC5F6"/>
<path d="M14.2516 12.5088L14.267 14.0003L14.2504 15.3949L9.94888 15.3998L9.9553 13.9753L9.93652 13.9377L9.94409 12.5182L11.3761 12.5184L14.2516 12.5088Z" fill="#FABB1E"/>
<path d="M9.94409 12.5181L11.3761 12.5183L11.3821 13.9979L9.9553 13.9752L9.93652 13.9376L9.94409 12.5181Z" fill="white"/>
<path d="M15.6721 12.522L19.9531 12.5242L19.9529 13.9486L21.4589 13.9466L21.4666 15.3992L15.6793 15.4015L15.6772 13.9812L15.6721 12.522Z" fill="#FABB1E"/>
<path d="M11.3721 45.6406L21.4727 45.6497L21.4728 47.1029L11.343 47.1234L11.3721 45.6406Z" fill="#6FC5F6"/>
<path d="M5.62568 34.0234L6.9833 34.0331L6.98128 45.6517L8.39941 45.6756L8.39881 47.0928L7.29465 47.1023L6.57768 47.0986L6.57059 45.6755L5.59644 45.6828L5.62568 34.0234Z" fill="#0040A1"/>
<path d="M45.9765 16.8389L46.0004 16.9759L45.996 18.2884L47.3663 18.2825L47.426 18.3281L47.4629 18.8043L47.4572 19.6789L45.9599 19.688L45.9743 18.2944L44.5693 18.2985L31.765 18.3197L31.7629 16.8416L45.9765 16.8389Z" fill="white"/>
<path d="M19.8716 23.999L19.9023 20.6851L19.897 25.3498L11.4394 25.3506L11.4386 26.7936L11.409 26.8142L7.0415 26.8545L7.04893 23.9675L19.8716 23.999Z" fill="#DD7013"/>
<path d="M22.9021 28.2612L24.3731 28.285L24.3964 31.2539L24.3728 45.6805L22.9124 45.6768L22.9021 28.2612Z" fill="white"/>
<path d="M14.2406 0.5L20.0082 0.501485L20.0007 1.50501L21.4628 1.5036L21.4574 2.51503L21.4609 3.87353L20.0515 3.87258L20.0245 5.10796L20.0144 3.84516L17.3952 3.84753L14.2327 3.87218L14.2166 5.30564L14.2045 3.86772L12.7871 3.87022L12.7849 1.50785L14.2462 1.51136L14.2406 0.5Z" fill="#0040A1"/>
<path d="M14.2161 2.46777L20.0127 2.46994L20.0145 3.84519L17.3954 3.84755L14.2246 3.84924L14.2161 2.46777Z" fill="#002050"/>
<path d="M27.2104 31.2031L28.6143 31.2203L28.6491 32.7985L28.6316 47.1259L22.915 47.1109L24.3659 47.1047L24.368 45.6895L27.2066 45.6893L27.2026 31.2228L27.2104 31.2031Z" fill="#DD7013"/>
<path d="M14.2573 6.74609L19.9812 6.74886L21.4205 6.75339L21.4269 8.1849L21.4657 8.19726L22.9193 8.19557L22.9302 9.63147L22.9446 9.63667L22.9174 11.138L22.9179 12.5202L21.4593 12.5201L21.4621 11.13L19.9669 11.1221L19.9805 9.65396L18.1133 9.66166L18.1138 8.19523L15.7262 8.20219L15.7253 9.64795L15.7192 11.0813L14.2601 11.0919L14.2685 9.64558L14.2573 6.74609Z" fill="#FABB1E"/>
<path d="M19.9812 6.74854L21.4205 6.75306L21.4269 8.18457L19.9826 8.19159L19.9812 6.74854Z" fill="#002050"/>
<path d="M22.9191 8.19531L22.9301 9.63121L21.4653 9.63128L21.4655 8.197L22.9191 8.19531Z" fill="#002050"/>
<path d="M8.38316 28.3002L9.91057 28.2983L9.91794 45.6428L11.3721 45.641L11.343 47.1237L9.91794 47.1206L9.89025 46.2528L9.89626 45.68L8.39937 45.6759C8.4043 44.8873 8.36398 44.0973 8.36344 43.3078C8.36101 40.0438 8.36243 36.7797 8.36189 33.5158C8.36155 31.8097 8.29705 29.9913 8.38316 28.3002Z" fill="white"/>
<path d="M46.0098 26.8339L46.0094 28.394L46.129 37.1115L46.3211 37.1808L46.1506 37.2053C46.045 37.3767 46.107 39.3586 46.1035 39.7036L46.0889 45.7356L44.6536 45.7218L44.6359 46.7624L44.6365 47.1034L43.6577 47.1066C43.6319 46.511 43.7279 46.7583 43.8907 46.3101L43.9025 46.2763L44.1012 46.267L44.1267 45.683L44.6041 45.6708L44.5762 26.8193L46.0098 26.8339Z" fill="#0040A1"/>
<path d="M20.0145 3.84521L20.0247 5.10802L20.0532 5.30813L21.4802 5.31475L21.4756 6.71512L22.9258 6.74004L22.9289 7.88418L22.9193 8.19546L21.4657 8.19715L21.4269 8.18479L21.4206 6.75328L19.9812 6.74875L14.2574 6.74599L14.2685 9.64547L14.2601 11.0918L12.6921 11.1014L12.7215 5.32305L12.8475 5.30577L14.2167 5.3057L14.2329 3.87223L17.3954 3.84758L20.0145 3.84521Z" fill="white"/>
<path d="M14.2522 5.32678L19.9824 5.32178L19.9811 6.74849L14.2573 6.74572L14.2522 5.32678Z" fill="#002050"/>
<path d="M5.65314 16.8354L19.9208 16.8382L19.9133 18.3118L5.62829 18.2925L5.60424 23.9615L7.04872 23.9674L7.04129 26.8544L5.59567 26.862L5.59344 25.455L5.59601 23.9785L4.24 23.9871L4.14505 23.9612L4.1416 18.2859L4.56269 18.2666L5.60627 18.2695L5.6089 16.9328L5.65314 16.8354Z" fill="white"/>
<path d="M22.8856 15.3911L28.6937 15.3952L28.705 16.8413L30.1458 16.8425L30.1481 22.7073L28.6412 22.7106L28.6462 21.1675L28.6577 18.2972L27.4143 18.2994L22.9248 18.2984L22.9243 22.7189L21.4235 22.7246L21.3975 16.841L22.8843 16.8423L22.8856 15.3911Z" fill="white"/>
<path d="M9.91978 49.3667L41.731 49.3759L41.7184 50.4723L9.9187 50.5L9.91978 49.3667Z" fill="#0040A1"/>
<path d="M34.3811 3.83252L37.3454 3.84076L37.35 5.20905L37.3543 5.27099L38.7876 5.29381L38.7853 6.76537L37.3061 6.74923L35.8858 6.74342L31.6246 6.7366L31.6081 6.74308L30.1719 6.75983L30.1408 8.19202L30.1014 8.20235L28.6876 8.20613L28.6699 9.61306L28.6583 9.63636L27.2181 9.6446L27.2145 12.5286L24.3583 12.525L24.3693 9.63926L22.9445 9.63656L22.9301 9.63136L22.9192 8.19546L23.812 8.18986L24.3939 8.19641L24.3863 9.62467L27.1945 9.62461L27.1997 8.19695L28.6574 8.19404L28.6605 6.73505L30.1117 6.72937L30.1149 5.29611L31.5958 5.27011L31.5957 3.86615L32.7844 3.8463L34.3811 3.83252Z" fill="white"/>
<path d="M31.6256 5.31934L37.3081 5.3221L37.3062 6.74936L35.886 6.74355L31.6248 6.73673L31.6256 5.31934Z" fill="#002050"/>
<path d="M44.5693 18.2986L45.9743 18.2944L45.96 19.6881L47.4572 19.6789L47.432 24.0625L46.0124 24.0757L46.0099 26.8339L44.5763 26.8194L40.1766 26.8018L40.1756 25.2467L31.7777 25.2825L31.7708 22.7388L31.7937 24.0873L44.5549 24.0687L44.5693 18.2986Z" fill="#DD7013"/>
<path d="M31.5992 0.504395L37.3245 0.515944L37.3147 1.64496L38.7527 1.64462L38.752 3.37525L40.2347 3.37788L40.2329 5.28444L41.5573 5.29613L41.5216 9.65083L41.8982 9.64806L44.0525 9.66873L43.0784 9.68291L43.0861 11.0892L44.0523 11.0851L44.0554 12.5212L43.0499 12.5196L43.0506 11.9303L43.0465 11.075L40.2365 11.082L40.2106 5.29599L38.7876 5.29363L37.3544 5.2708L37.3501 5.20887L37.3455 3.84058L34.3811 3.83234L32.7845 3.84611L31.5958 3.86597L30.1406 3.86955L30.1208 1.57641L31.6025 1.57735L31.5992 0.504395Z" fill="#0040A1"/>
<path d="M37.3741 3.86572L38.7543 3.86998L38.7542 5.25799L37.3544 5.2711L37.3501 5.20916L37.3741 3.86572Z" fill="#002050"/>
<path d="M31.5964 2.45773L37.338 2.45557L37.331 3.82224L34.381 3.83237L32.7844 3.84615L31.6008 3.84912L31.5964 2.45773Z" fill="#002050"/>
<path d="M41.7172 28.3794L43.1385 28.3805L43.1367 45.7127L41.7378 45.7411L41.754 47.1273L30.115 47.1038L30.1128 45.6473L41.6949 45.6575L41.7172 28.3794Z" fill="#6FC5F6"/>
<path d="M35.886 6.74315L37.3062 6.74896L38.7854 6.7651L38.7744 11.0812L37.3271 11.075L35.874 11.0731L35.8783 9.75387L35.8592 8.19877L33.0587 8.19762L33.0532 9.6525L31.6303 9.64649L31.632 11.102L30.1246 11.0885L30.1495 13.9527L31.7269 13.9437L31.7321 12.5193L35.8914 12.5165L35.8889 13.9472L35.8861 15.4141L30.1283 15.4076L30.1402 14.0013L28.6533 13.9708L28.6558 12.5377L28.6584 9.63609L28.67 9.61279L28.6878 8.20586L30.1015 8.20208L30.141 8.19175L30.172 6.75956L31.6082 6.74281L31.6247 6.73633L35.886 6.74315Z" fill="#FABB1E"/>
<path d="M28.6877 8.20593L30.1014 8.20215L30.1126 9.63008L28.6699 9.61286L28.6877 8.20593Z" fill="#002050"/>
<path d="M31.6081 6.74316L31.6161 8.19716L30.1409 8.1921L30.1719 6.75991L31.6081 6.74316Z" fill="#002050"/>
<path d="M35.886 6.74316L37.3062 6.74897L38.7854 6.76511L38.7744 11.0813L37.3271 11.075L37.336 8.17251L35.8871 8.19088L35.886 6.74316Z" fill="#DD7013"/>
<path d="M24.3731 28.2847L25.1987 28.294L27.2032 28.3251L27.2104 31.2032L27.2026 31.2229L27.2065 45.6894L24.368 45.6896L24.3658 47.1047L22.915 47.111L22.9124 45.6765L24.3728 45.6802L24.3964 31.2535L24.3731 28.2847Z" fill="#FABB1E"/>
<path d="M27.4144 18.2996L28.6579 18.2974L28.6463 21.1677L28.6414 22.7108L30.1483 22.7074L30.1451 24.08L30.1452 26.7676L21.4335 26.7632L21.4322 24.0708L21.4236 22.7247L22.9244 22.7191L22.9249 18.2986L27.4144 18.2996Z" fill="#FABB1E"/>
<path d="M24.3445 19.7021L27.2375 19.6899L27.2218 21.0712L27.2003 21.1666C26.9839 21.2964 24.7334 21.2234 24.3623 21.2216L24.3445 19.7021Z" fill="white"/>
<path d="M31.7651 18.32L44.5694 18.2988L44.5549 24.069L31.7938 24.0876L31.7708 22.7391L31.7651 18.32Z" fill="#FABB1E"/>
<path d="M5.62829 18.2925L19.9133 18.3118L19.902 20.6849L19.8714 23.9989L7.04872 23.9674L5.60425 23.9615L5.62829 18.2925Z" fill="#FABB1E"/>
<path d="M31.7694 26.8302L38.7309 26.8013L38.7458 31.2569L38.7302 31.2629L38.7577 32.7003L38.7601 37.007L37.3436 37.0164L37.3104 39.4165L37.3028 41.3386L35.8622 41.3613L35.8559 44.2332L30.4357 44.2545L30.1603 44.2196L30.139 41.3327L30.1145 28.3315L31.7707 28.3254L31.7694 26.8302Z" fill="#0040A1"/>
<path d="M33.0638 31.2532L35.878 31.2446L35.8837 32.7133L33.0625 32.7078L33.0638 31.2532Z" fill="#FDFE7A"/>
<path d="M35.8829 28.3521L37.3135 28.3531L37.3332 31.2573L38.7301 31.2627L38.7577 32.7001L37.3147 32.7026L37.3208 35.3938L35.8762 35.3911L35.8838 32.7132L35.8781 31.2445L35.8829 28.3521Z" fill="#FEFC08"/>
<path d="M12.8571 26.7626L19.9125 26.7354L19.9151 28.2663L21.4654 28.2723L21.468 41.3579L21.4679 44.2251L12.2412 44.2327L12.8842 44.2277L12.8821 41.9479L12.8605 41.3279L12.8213 32.7196L12.844 32.7084L12.8417 31.2833L12.8457 31.2644L12.8526 28.3254L12.8571 26.7626Z" fill="#0040A1"/>
<path d="M14.224 28.3013L15.7163 28.3037L15.7131 31.2547L18.5003 31.2461L18.4957 32.734L15.6989 32.7239L15.6975 35.4205L14.2019 35.4176L14.2064 32.7111L12.8441 32.7085L12.8418 31.2834L12.8457 31.2644L14.2018 31.2598L14.224 28.3013Z" fill="#FEFC08"/>
</svg>
