<svg width="13" height="12" viewBox="0 0 13 12" fill="none" xmlns="http://www.w3.org/2000/svg">
<path d="M11.93 3.4358H11.3563V2.29205H10.7863V1.72205H10.2125V1.15205H9.0725V0.578301H7.92875V0.00830078H5.07125V0.578301H3.9275V1.15205H2.78375V1.72205H2.21375V2.29205H1.64375V3.4358H1.07V4.57955H0.5V7.43705H1.07V8.5808H1.64375V9.7208H2.21375V10.2946H2.78375V10.8646H3.9275V11.4383H5.07125V12.0083H7.92875V11.4383H9.0725V10.8646H10.2125V10.2946H10.7863V9.7208H11.3563V8.5808H11.93V7.43705H12.5V4.57955H11.93V3.4358Z" fill="#0E0E14"/>
<path d="M3.99121 4.2251H6.69141V8.72705H8.41504V9.5083H3.99121V8.72705H5.78809V5.01123H3.99121V4.2251ZM5.6709 2.83838C5.6709 2.76025 5.68229 2.68701 5.70508 2.61865C5.73112 2.55029 5.77018 2.4917 5.82227 2.44287C5.86458 2.40055 5.91829 2.368 5.9834 2.34521C6.05176 2.31917 6.12826 2.30615 6.21289 2.30615C6.29753 2.30615 6.3724 2.31917 6.4375 2.34521C6.5026 2.368 6.55632 2.40055 6.59863 2.44287C6.65072 2.48844 6.68978 2.54541 6.71582 2.61377C6.74186 2.68213 6.75488 2.757 6.75488 2.83838C6.75488 2.98486 6.70931 3.10693 6.61816 3.20459C6.52702 3.30225 6.39193 3.35107 6.21289 3.35107C6.0306 3.35107 5.89388 3.30225 5.80273 3.20459C5.71484 3.10693 5.6709 2.98486 5.6709 2.83838Z" fill="white"/>
</svg>
