<svg width="44" height="44" viewBox="0 0 44 44" fill="none" xmlns="http://www.w3.org/2000/svg">
<path d="M3.605 18.4052L19.8064 2.19717L35.4744 0.881836V4.13076L26.408 13.2011L25.3286 15.4883L35.2009 17.6073L35.6824 21.5243L15.4002 41.8026L13.3845 42.6347L12.3064 37.8896L15.4002 28.6112L16.5426 26.4746L16.2155 23.4541L5.9314 23.0683L4.40406 22.0058L3.605 18.4052Z" fill="url(#paint0_linear_30_5391)"/>
<path d="M43.9997 11.0078H41.7911V13.202H43.9997V11.0078Z" fill="white"/>
<path d="M41.7911 13.2021H39.5969V15.4108H41.7911V13.2021Z" fill="white"/>
<path d="M41.7911 8.81348H39.5969V11.0077H41.7911V8.81348Z" fill="white"/>
<path d="M39.5969 11.0078H37.4026V13.202H39.5969V11.0078Z" fill="white"/>
<path d="M41.7911 11.0078H39.5969V13.202H41.7911V11.0078Z" fill="#2496FF"/>
<path d="M37.4026 39.6049V37.3962H39.5968V35.202H37.4026V33.0078H35.194V35.202H32.9998V37.3962H35.194V39.6049H37.4026Z" fill="url(#paint1_linear_30_5391)"/>
<path d="M37.4026 17.6045H35.194V22.0074H37.4026V17.6045Z" fill="white"/>
<path d="M35.194 22.0078H32.9998V24.202H35.194V22.0078Z" fill="white"/>
<path d="M35.194 4.41016H32.9998V6.60437H35.194V4.41016Z" fill="white"/>
<path d="M32.9998 24.2012H30.7911V26.4098H32.9998V24.2012Z" fill="white"/>
<path d="M32.9998 6.60449H30.7911V8.81314H32.9998V6.60449Z" fill="white"/>
<path d="M30.7911 26.4102H28.5969V28.6044H30.7911V26.4102Z" fill="white"/>
<path d="M30.7911 8.81348H28.5969V11.0077H30.7911V8.81348Z" fill="white"/>
<path d="M28.5969 28.6055H26.4027V30.7997H28.5969V28.6055Z" fill="white"/>
<path d="M28.5969 11.0078H26.4027V13.202H28.5969V11.0078Z" fill="white"/>
<path d="M26.4027 41.7988H24.1941V44.0075H26.4027V41.7988Z" fill="white"/>
<path d="M26.4027 30.7988H24.1941V33.0075H26.4027V30.7988Z" fill="white"/>
<path d="M24.1941 13.2021V15.4108H21.9999V17.605H35.194V15.4108H26.4027V13.2021H24.1941Z" fill="white"/>
<path d="M24.1941 33.0078H21.9999V35.202H24.1941V33.0078Z" fill="white"/>
<path d="M35.194 2.20202V4.41067H37.4026V0.0078125H19.8056V2.20202H35.194Z" fill="white"/>
<path d="M21.9999 35.2012H19.8056V37.3954H21.9999V35.2012Z" fill="white"/>
<path d="M19.8057 37.3965H17.597V39.6051H19.8057V37.3965Z" fill="white"/>
<path d="M19.8057 2.20215H17.597V4.4108H19.8057V2.20215Z" fill="white"/>
<path d="M17.597 39.6055H15.4028V41.7997H17.597V39.6055Z" fill="white"/>
<path d="M17.597 22.0078H4.40286V24.202H15.4028V28.6049H17.597V22.0078Z" fill="white"/>
<path d="M17.597 4.41016H15.4028V6.60437H17.597V4.41016Z" fill="white"/>
<path d="M15.4028 41.7988H13.1941V44.0075H15.4028V41.7988Z" fill="white"/>
<path d="M15.4028 28.6055H13.1941V35.2025H15.4028V28.6055Z" fill="white"/>
<path d="M15.4028 6.60449H13.1941V8.81314H15.4028V6.60449Z" fill="white"/>
<path d="M13.1941 35.2012H10.9999V41.7982H13.1941V35.2012Z" fill="white"/>
<path d="M13.1941 8.81348H10.9999V11.0077H13.1941V8.81348Z" fill="white"/>
<path d="M10.9999 11.0078H8.80572V13.202H10.9999V11.0078Z" fill="white"/>
<path d="M8.80572 13.2021H6.59707V15.4108H8.80572V13.2021Z" fill="white"/>
<path d="M6.59707 30.7988H4.40286V33.0075H6.59707V30.7988Z" fill="white"/>
<path d="M6.59707 15.4102H4.40286V17.6044H6.59707V15.4102Z" fill="white"/>
<path d="M4.40286 0.0078125V2.20202H2.20865V4.41067H4.40286V6.60488H6.59707V4.41067H8.80572V2.20202H6.59707V0.0078125H4.40286Z" fill="url(#paint2_linear_30_5391)"/>
<path d="M4.40286 33.0078H2.20865V35.202H4.40286V33.0078Z" fill="white"/>
<path d="M4.40286 28.6055H2.20865V30.7997H4.40286V28.6055Z" fill="white"/>
<path d="M4.40286 17.6045H2.20865V22.0074H4.40286V17.6045Z" fill="white"/>
<path d="M2.20865 30.7988H0V33.0075H2.20865V30.7988Z" fill="white"/>
<path d="M4.4173 30.7988H2.20865V33.0075H4.4173V30.7988Z" fill="#2496FF"/>
<defs>
<linearGradient id="paint0_linear_30_5391" x1="19.6437" y1="0.881836" x2="19.6437" y2="42.6347" gradientUnits="userSpaceOnUse">
<stop stop-color="#FABB1E"/>
<stop offset="1" stop-color="#A55921"/>
</linearGradient>
<linearGradient id="paint1_linear_30_5391" x1="36.2983" y1="33.0078" x2="36.2983" y2="39.6049" gradientUnits="userSpaceOnUse">
<stop stop-color="#FABB1E"/>
<stop offset="1" stop-color="#A55921"/>
</linearGradient>
<linearGradient id="paint2_linear_30_5391" x1="5.50718" y1="0.0078125" x2="5.50718" y2="6.60488" gradientUnits="userSpaceOnUse">
<stop stop-color="#FABB1E"/>
<stop offset="1" stop-color="#A55921"/>
</linearGradient>
</defs>
</svg>
