<svg width="33" height="26" viewBox="0 0 33 26" fill="none" xmlns="http://www.w3.org/2000/svg">
<path d="M20.1319 24.1701L19.6319 24.1701L19.6319 23.6701L19.6319 21.1201L19.1119 21.1201L19.1119 23.6701L19.1119 24.1701L18.6119 24.1701L14.5319 24.1701L14.5319 24.6901L24.2019 24.6901L24.2019 24.1701L20.1319 24.1701Z" stroke="white"/>
<path d="M28.2519 22.1399L28.2519 22.6399L27.7519 22.6399L25.2019 22.6399L25.2019 23.1699L27.7519 23.1699L28.2519 23.1699L28.2519 23.6699L28.2519 24.6899L31.8219 24.6899L31.8219 4.35986L28.2519 4.35986L28.2519 5.37986L28.2519 5.87986L27.7519 5.87986L26.7319 5.87986L26.7319 6.40986L27.7519 6.40986L28.2519 6.40986L28.2519 6.90986L28.2519 22.1399ZM31.3019 22.1399L31.3019 22.6399L30.8019 22.6399L29.2719 22.6399L28.7719 22.6399L28.7719 22.1399L28.7719 19.0999L28.7719 18.5999L29.2719 18.5999L30.8019 18.5999L31.3019 18.5999L31.3019 19.0999L31.3019 22.1399Z" stroke="white"/>
<path d="M13.5318 22.6401L13.0118 22.6401L13.0118 23.1701L13.5318 23.1701L13.5318 22.6401Z" stroke="white"/>
<path d="M12.0119 20.6201L12.0119 20.1201L12.5119 20.1201L18.1119 20.1201L18.1119 19.6001L11.4919 19.6001L11.4919 21.6401L12.0119 21.6401L12.0119 20.6201Z" stroke="white"/>
<path d="M19.6319 16.5503L19.1119 16.5503L19.1119 18.6003L19.6319 18.6003L19.6319 16.5503Z" stroke="white"/>
<path d="M21.152 8.93018L20.632 8.93018L20.632 12.5002L21.152 12.5002L21.152 8.93018Z" stroke="white"/>
<path d="M14.5319 9.95017L14.5319 10.4502L14.0319 10.4502L2.34192 10.4502L2.34192 10.9802L9.46192 10.9802L9.96192 10.9802L9.96192 11.4802L9.96192 18.6002L10.4919 18.6002L10.4919 16.0502L10.4919 15.5502L10.9919 15.5502L18.1119 15.5502L18.1119 14.5302L18.1119 14.0302L18.6119 14.0302L19.6319 14.0302L19.6319 13.5002L17.0819 13.5002L16.5819 13.5002L16.5819 13.0002L16.5819 11.9802L16.0619 11.9802L16.0619 14.5302L16.0619 15.0302L15.5619 15.0302L10.9919 15.0302L10.4919 15.0302L10.4919 14.5302L10.4919 11.4802L10.4919 10.9802L10.9919 10.9802L15.0619 10.9802L15.0619 8.93018L14.5319 8.93018L14.5319 9.95017Z" stroke="white"/>
<path d="M1.3419 7.41016L0.821899 7.41016L0.8219 9.45016L1.3419 9.45016L1.3419 7.41016Z" stroke="white"/>
<path d="M19.6319 7.41016L19.1119 7.41016L19.1119 7.93016L19.6319 7.93016L19.6319 7.41016Z" stroke="white"/>
<path d="M12.5119 6.40986L13.0119 6.40986L13.0119 6.90986L13.0119 7.92986L13.5319 7.92986L13.5319 4.35986L13.0119 4.35986L13.0119 5.37986L13.0119 5.87986L12.5119 5.87986L2.34192 5.87986L2.34192 6.40986L12.5119 6.40986Z" stroke="white"/>
<path d="M25.7319 4.35986L25.2019 4.35986L25.2019 4.87986L25.7319 4.87986L25.7319 4.35986Z" stroke="white"/>
<path d="M24.2019 2.83984L22.1519 2.83984L22.1519 3.35984L24.2019 3.35984L24.2019 2.83984Z" stroke="white"/>
<path d="M15.0619 2.83984L14.5319 2.83984L14.5319 3.35984L15.0619 3.35984L15.0619 2.83984Z" stroke="white"/>
<path d="M21.1519 1.31006L16.0619 1.31006L16.0619 1.84006L21.1519 1.84006L21.1519 1.31006Z" stroke="white"/>
</svg>
