<svg width="29" height="28" viewBox="0 0 29 28" fill="none" xmlns="http://www.w3.org/2000/svg">
<path d="M20.3438 6.66789V9.33664H19.0138V13.3354H20.3438V14.6654H21.6825V16.0041H17.6838V17.3341H16.345V18.6641H20.3438V21.3329H19.0138V24.0016H20.3438V25.3316H23.0125V24.0016H24.3513V22.6629H25.6813V20.0029H27.0113V17.3341H28.35V10.6666H27.0113V7.99789H25.6813V5.33789H24.3513V6.66789H20.3438Z" fill="white"/>
<path d="M24.3513 3.99902H23.0125V5.33777H24.3513V3.99902Z" fill="white"/>
<path d="M23.0125 2.66895H20.3438V3.99895H23.0125V2.66895Z" fill="white"/>
<path d="M20.3437 25.3311H17.6837V26.6698H20.3437V25.3311Z" fill="white"/>
<path d="M20.3437 1.33008H17.6837V2.66883H20.3437V1.33008Z" fill="white"/>
<path d="M15.015 25.331H13.685V24.001H9.67753V25.331H8.34753V26.6697H11.0163V27.9997H17.6838V26.6697H15.015V25.331Z" fill="white"/>
<path d="M17.6838 0H11.0163V1.33H17.6838V0Z" fill="white"/>
<path d="M9.67749 14.6648H11.0162V16.0036H12.3462V11.9961H9.67749V14.6648Z" fill="white"/>
<path d="M8.34752 24.001H5.67877V25.331H8.34752V24.001Z" fill="white"/>
<path d="M5.67875 22.6621H4.34875V24.0009H5.67875V22.6621Z" fill="white"/>
<path d="M3.01876 20.0026V22.6626H4.34876V21.3326H5.67876V20.0026H7.01751V16.0038H5.67876V14.6651H4.34876V13.3351H3.01876V11.9963H4.34876V10.6663H8.34751V9.33633H9.67751V7.99758H11.0163V9.33633H12.3463V7.99758H13.685V5.33758H12.3463V3.99883H9.67751V2.66883H11.0163V1.33008H8.34751V2.66883H5.67876V3.99883H4.34876V5.33758H3.01876V7.99758H1.68001V10.6663H0.350006V17.3338H1.68001V20.0026H3.01876Z" fill="white"/>
</svg>
  