<svg width="24" height="28" viewBox="0 0 24 28" fill="none" xmlns="http://www.w3.org/2000/svg">
<path d="M21.7325 5.32875H17.7337V1.33H19.0637V0H0.399994V28H23.0625V3.99875H21.7325V5.32875ZM21.7325 26.67H1.72999V1.33H16.395V6.6675H21.7325V26.67Z" fill="white"/>
<path d="M21.7325 2.66895H20.4025V3.99895H21.7325V2.66895Z" fill="white"/>
<path d="M20.4025 1.33008H19.0638V2.66883H20.4025V1.33008Z" fill="white"/>
<path d="M16.395 20.0022H15.065V11.9959H12.3962V20.0022H11.0662V14.6647H8.39748V20.0022H4.39873V17.3334H5.72873V16.0034H4.39873V13.3347H5.72873V11.9959H4.39873V9.33594H3.06873V21.3322H20.4025V20.0022H19.0637V13.3347H16.395V20.0022Z" fill="white"/>
</svg>
