<svg width="29" height="29" viewBox="0 0 29 29" fill="none" xmlns="http://www.w3.org/2000/svg">
<path d="M28.11 10.5615H26.7045V13.3634H28.11V10.5615Z" fill="white"/>
<path d="M26.7045 13.3633H25.3082V14.7596H26.7045V13.3633Z" fill="white"/>
<path d="M25.3082 14.7598H23.9118V16.1561H25.3082V14.7598Z" fill="white"/>
<path d="M26.7045 9.16504H23.9118V10.5614H26.7045V9.16504Z" fill="white"/>
<path d="M23.9119 10.5615H22.5063V11.9578H23.9119V10.5615Z" fill="white"/>
<path d="M23.9119 7.75977H22.5063V9.16528H23.9119V7.75977Z" fill="white"/>
<path d="M23.9118 16.1562H21.11V17.5618H23.9118V16.1562Z" fill="white"/>
<path d="M22.5063 11.958H21.11V13.3635H22.5063V11.958Z" fill="white"/>
<path d="M22.5063 6.36328H21.11V7.75961H22.5063V6.36328Z" fill="white"/>
<path d="M21.11 13.3633H19.7137V16.1559H21.11V13.3633Z" fill="white"/>
<path d="M21.11 4.95801H19.7137V6.36352H21.11V4.95801Z" fill="white"/>
<path d="M19.7137 11.958H18.3082V13.3635H19.7137V11.958Z" fill="white"/>
<path d="M19.7137 3.56152H18.3082V4.95785H19.7137V3.56152Z" fill="white"/>
<path d="M18.3082 13.3633H16.9118V14.7596H18.3082V13.3633Z" fill="white"/>
<path d="M18.3082 2.16504H16.9118V3.56136H18.3082V2.16504Z" fill="white"/>
<path d="M15.5063 13.3635H14.11V11.958H12.7137V13.3635H11.3082V14.7598H12.7137V16.1562H11.3082V17.5617H9.91185V18.958H8.51553V17.5617H7.11002V18.958H5.71369V20.3635H4.30818V21.7598H2.91185V23.1562H1.51553V24.5617H0.110016V27.3635H1.51553V28.7598H4.30818V27.3635H5.71369V25.958H7.11002V24.5617H8.51553V23.1562H9.91185V21.7598H11.3082V20.3635H12.7137V18.958H14.11V17.5617H15.5063V16.1562H16.9119V14.7598H15.5063V13.3635Z" fill="white"/>
<path d="M15.5063 9.16504H14.11V11.9577H15.5063V9.16504Z" fill="white"/>
<path d="M16.9118 0.759766H12.7137V2.16528H16.9118V0.759766Z" fill="white"/>
<path d="M14.11 7.75977H12.7137V9.16528H14.11V7.75977Z" fill="white"/>
<path d="M12.7137 6.36328H9.91183V7.75961H12.7137V6.36328Z" fill="white"/>
<path d="M12.7137 2.16504H9.91183V3.56136H12.7137V2.16504Z" fill="white"/>
<path d="M11.3082 14.7598H9.91183V16.1561H11.3082V14.7598Z" fill="white"/>
<path d="M9.91189 16.1562H8.51556V17.5618H9.91189V16.1562Z" fill="white"/>
<path d="M9.91189 7.75977H8.51556V9.16528H9.91189V7.75977Z" fill="white"/>
<path d="M9.91189 3.56152H8.51556V4.95785H9.91189V3.56152Z" fill="white"/>
<path d="M8.51553 4.95801H7.11002V7.75985H8.51553V4.95801Z" fill="white"/>
</svg>
