<svg width="29" height="28" viewBox="0 0 29 28" fill="none" xmlns="http://www.w3.org/2000/svg">
<path d="M28.35 1.33887H27.02V14.6651H28.35V1.33887Z" fill="white"/>
<path d="M27.02 0H12.355V1.33875H27.02V0Z" fill="white"/>
<path d="M27.02 14.665H21.6913V16.0038H27.02V14.665Z" fill="white"/>
<path d="M23.0213 9.33594H21.6913V12.0047H23.0213V9.33594Z" fill="white"/>
<path d="M23.0213 5.33789H21.6913V6.66789H23.0213V5.33789Z" fill="white"/>
<path d="M21.6912 16.0039H20.3525V17.3339H21.6912V16.0039Z" fill="white"/>
<path d="M20.3525 17.334H19.0225V18.6727H20.3525V17.334Z" fill="white"/>
<path d="M19.0225 13.3352V14.6652H20.3525V13.3352H21.6912V12.0052H20.3525V9.33645H21.6912V7.9977H20.3525V5.3377H21.6912V3.99895H20.3525V2.66895H19.0225V3.99895H17.6837V5.3377H19.0225V7.9977H17.6837V9.33645H19.0225V12.0052H17.6837V13.3352H19.0225Z" fill="white"/>
<path d="M16.3538 16.0039H15.0238V20.0027H19.0225V18.6727H16.3538V16.0039Z" fill="white"/>
<path d="M17.6837 10.666H16.3537V12.0048H17.6837V10.666Z" fill="white"/>
<path d="M17.6837 5.33789H16.3537V7.99789H17.6837V5.33789Z" fill="white"/>
<path d="M16.3537 26.6699H13.685V27.9999H16.3537V26.6699Z" fill="white"/>
<path d="M13.685 25.3311H11.0163V26.6698H13.685V25.3311Z" fill="white"/>
<path d="M12.355 22.6719H11.0163V24.0019H12.355V22.6719Z" fill="white"/>
<path d="M12.355 1.33887H11.0163V9.33637H12.355V1.33887Z" fill="white"/>
<path d="M4.35751 24.001V25.331H7.01751V27.9997H8.35626V25.331H11.0163V24.001H4.35751Z" fill="white"/>
<path d="M11.0162 20.002H9.68625V21.332H11.0162V20.002Z" fill="white"/>
<path d="M11.0162 17.334H9.68625V18.6727H11.0162V17.334Z" fill="white"/>
<path d="M9.68627 21.332H7.01752V22.6708H9.68627V21.332Z" fill="white"/>
<path d="M5.68751 17.334H4.35751V18.6727H5.68751V17.334Z" fill="white"/>
<path d="M4.35749 22.6719H3.01874V24.0019H4.35749V22.6719Z" fill="white"/>
<path d="M4.35753 25.3311H1.68878V26.6698H4.35753V25.3311Z" fill="white"/>
<path d="M3.01878 16.0035H4.35753V14.6648H11.0163V16.0035H12.355V22.671H13.685V13.3348H12.355V12.0048H11.0163V10.666H4.35753V12.0048H3.01878V13.3348H1.68878V22.671H3.01878V16.0035Z" fill="white"/>
<path d="M1.68876 26.6699H0.350006V27.9999H1.68876V26.6699Z" fill="white"/>
</svg>
