<svg width="17" height="16" viewBox="0 0 17 16" fill="none" xmlns="http://www.w3.org/2000/svg">
<circle cx="8.3219" cy="8" r="8" fill="white"/>
<path d="M5.4801 5.57422C6.16565 4.76758 7.17932 4.25 8.3219 4.25C10.3942 4.25 12.0719 5.92773 12.0719 8H13.3219C13.3219 5.23828 11.0836 3 8.3219 3C6.83362 3 5.50354 3.65234 4.58948 4.68359L3.3219 3.41602V6.75H6.65588L5.4801 5.57422ZM11.1637 10.4258C10.4762 11.2324 9.46448 11.75 8.3219 11.75C6.24963 11.75 4.5719 10.0723 4.5719 8H3.3219C3.3219 10.7617 5.56018 13 8.3219 13C9.81018 13 11.1403 12.3477 12.0543 11.3164L13.3219 12.584V9.25H9.98792L11.1637 10.4258Z" fill="#002050"/>
</svg>
