<svg width="33" height="26" viewBox="0 0 33 26" fill="none" xmlns="http://www.w3.org/2000/svg">
<path d="M8.44194 24.1699L18.1119 24.1699L18.1119 24.6899L8.44194 24.6899L8.44194 24.1699Z" stroke="white"/>
<path d="M4.39189 22.1399L4.39189 22.6399L4.89189 22.6399L7.44189 22.6399L7.44189 23.1699L4.89189 23.1699L4.39189 23.1699L4.39189 23.6699L4.39189 24.6899L0.821893 24.6899L0.821894 4.35986L4.39189 4.35986L4.39189 5.37986L4.39189 5.87986L4.89189 5.87986L5.91189 5.87986L5.91189 6.40986L4.89189 6.40986L4.39189 6.40986L4.39189 6.90986L4.39189 22.1399ZM1.34189 22.1399L1.34189 22.6399L1.84189 22.6399L3.37189 22.6399L3.87189 22.6399L3.87189 22.1399L3.87189 19.0999L3.87189 18.5999L3.37189 18.5999L1.84189 18.5999L1.34189 18.5999L1.34189 19.0999L1.34189 22.1399Z" stroke="white"/>
<path d="M19.112 22.6401L19.632 22.6401L19.632 23.1701L19.112 23.1701L19.112 22.6401Z" stroke="white"/>
<path d="M14.5319 19.6001L18.1119 19.6001L18.1119 20.1201L14.5319 20.1201L14.5319 19.6001Z" stroke="white"/>
<path d="M20.6319 19.6001L21.1519 19.6001L21.1519 21.6401L20.6319 21.6401L20.6319 19.6001Z" stroke="white"/>
<path d="M14.5319 15.0303L18.1119 15.0303L18.1119 15.5503L14.5319 15.5503L14.5319 15.0303Z" stroke="white"/>
<path d="M14.5319 10.4502L18.1119 10.4502L18.1119 10.9802L14.5319 10.9802L14.5319 10.4502Z" stroke="white"/>
<path d="M23.1819 10.9802L22.6819 10.9802L22.6819 11.4802L22.6819 18.6002L22.1519 18.6002L22.1519 10.4502L30.3019 10.4502L30.3019 10.9802L23.1819 10.9802Z" stroke="white"/>
<path d="M31.3019 7.41016L31.8219 7.41016L31.8219 9.45016L31.3019 9.45016L31.3019 7.41016Z" stroke="white"/>
<path d="M19.6319 5.37986L19.6319 5.87986L20.1319 5.87986L30.3019 5.87986L30.3019 6.40986L13.0119 6.40986L13.0119 5.87986L18.6119 5.87986L19.1119 5.87986L19.1119 5.37986L19.1119 4.35986L19.6319 4.35986L19.6319 5.37986Z" stroke="white"/>
<path d="M6.91189 4.35986L7.44189 4.35986L7.44189 4.87986L6.91189 4.87986L6.91189 4.35986Z" stroke="white"/>
<path d="M8.44194 2.83984L10.4919 2.83984L10.4919 3.35984L8.44194 3.35984L8.44194 2.83984Z" stroke="white"/>
<path d="M17.5819 2.83984L18.1119 2.83984L18.1119 3.35984L17.5819 3.35984L17.5819 2.83984Z" stroke="white"/>
<path d="M11.4919 1.31006L16.5819 1.31006L16.5819 1.84006L11.4919 1.84006L11.4919 1.31006Z" stroke="white"/>
</svg>
