<svg width="51" height="50" viewBox="0 0 51 50" fill="none" xmlns="http://www.w3.org/2000/svg">
<path d="M38.8245 4.09277L40.9869 4.09452L40.9863 6.18106L38.8253 6.18018L38.8245 4.09277Z" fill="#002050"/>
<path d="M13.5313 0L36.7317 0.00370501L36.7073 2.04133L13.5463 2.00724L13.544 4.05248L11.3096 4.04156L11.3019 6.18233L11.2832 10.466L9.13818 10.4734L9.11979 12.6839L6.9016 12.676L4.52644 12.6569L4.51964 14.9379L2.17412 14.9407L2.17675 17.1778L2.17897 36.8501L4.56013 36.8512L4.56188 38.9958L6.94661 38.9976L6.94465 41.1511L9.11669 41.1499L9.11574 43.3399L11.3731 43.3428L11.3732 45.7812L18.2449 45.7663L20.5045 45.7694L27.3747 45.7305L27.3813 43.5348L29.7066 43.5228L31.9827 43.5131L34.3123 43.51L34.3219 41.2147L36.6096 41.2168L36.6228 39.0568L38.8282 39.0589L38.8451 36.8632L40.9009 36.8536L41.0188 36.8381C41.1056 36.7139 41.0574 34.9968 41.0565 34.7017L43.2678 34.7085L45.5709 34.6996C45.6576 31.6611 45.5945 28.6126 45.6076 25.573C45.6183 23.1142 45.6221 20.6571 45.6115 18.1982C45.6067 17.0998 45.6284 15.9977 45.5942 14.9L45.5981 12.721L43.3295 12.7213L43.3314 10.4517L40.9872 10.4562L40.9862 6.18119L42.9287 6.17829L42.9305 8.09228L44.9088 8.10212L44.9209 9.89713L46.3745 9.89565L46.3726 11.6405L48.0982 11.6367L48.1166 13.4025L50.1783 13.3987L50.1842 36.8715L48.1164 36.8326L48.1162 39.0618L46.4551 39.0608L46.449 41.1966L44.5514 41.2092L44.5512 43.0935L42.7412 43.0981L42.7474 44.7209L41.037 44.72L41.0357 45.7425L38.8689 45.7388L38.8729 47.9631L36.6876 47.9577L36.698 50L13.4742 49.9782L13.4779 47.9895L11.3411 48.0006L11.3397 46.2696L9.15334 46.2742L9.15186 44.4812L7.15311 44.4769L7.14448 42.9731L5.52343 42.9726L5.51709 41.0218L3.99379 41.0224L3.99009 39.0576L2.14656 39.056L2.15034 36.8919L0.0128 36.901L0 13.3923L2.03412 13.3943L2.03836 11.6872L3.76291 11.6901L3.76621 9.95649L5.51817 9.95474L5.52309 8.11438L7.30106 8.10711L7.29877 6.18334L9.1272 6.18024L9.11857 4.03058L11.3025 4.03354L11.2813 2.02792L13.5323 2.00852L13.5313 0Z" fill="#002050"/>
<path d="M9.1382 10.4736L9.1198 12.6842L6.90162 12.6763L6.89697 10.4815L9.1382 10.4736Z" fill="white"/>
<path d="M9.1272 6.18322L11.3019 6.18262L11.2832 10.4662L9.13818 10.4737L9.1272 6.18322Z" fill="white"/>
<path d="M45.5941 14.9004L48.0483 14.9078L48.0794 36.7988C47.8935 36.9094 45.9482 36.8304 45.5759 36.8418L45.5708 34.6999C45.6575 31.6615 45.5944 28.6129 45.6075 25.5734C45.6182 23.1145 45.622 20.6575 45.6114 18.1986C45.6066 17.1001 45.6283 15.9981 45.5941 14.9004Z" fill="#CE850C"/>
<path d="M43.2679 34.7081L45.571 34.6992L45.5761 36.8411L45.5711 39.0473L43.2001 39.0445L43.1893 41.1561L41.0063 41.1558L40.9964 43.4844L38.8601 43.4799L38.8597 45.7332L36.6626 45.7296L36.6672 47.9586L13.4988 47.9693L13.5213 45.7907L11.3733 45.7809L18.245 45.7659L20.5046 45.769L27.3747 45.7302L27.3813 43.5345L29.7066 43.5224L31.9828 43.5127L34.3124 43.5097L34.322 41.2144L36.6097 41.2165L36.6229 39.0564L38.8283 39.0585L38.8452 36.8628L40.901 36.8533L41.0189 36.8378C41.1057 36.7135 41.0575 34.9965 41.0565 34.7013L43.2679 34.7081Z" fill="url(#paint0_linear_2059_4061)"/>
<path d="M29.7065 43.5224L31.9827 43.5127L31.9752 45.7646L29.7036 45.7609L29.7065 43.5224Z" fill="white"/>
<path d="M13.5463 2.00684L36.7072 2.04093L38.8297 2.07225L38.8243 4.0925L38.8252 6.17991L40.9861 6.18078L40.9871 10.4558L43.3313 10.4513L43.3294 12.7209L45.598 12.7206L45.5942 14.8996C45.6283 15.9973 45.6066 17.0994 45.6114 18.1978C45.6221 20.6567 45.6182 23.1138 45.6076 25.5726C45.5944 28.6122 45.6576 31.6607 45.5709 34.6992L43.2677 34.7081L41.0564 34.7013C41.0574 34.9964 41.1056 36.7135 41.0188 36.8377L40.9008 36.8532L38.845 36.8628L38.8282 39.0585L36.6227 39.0564L36.6095 41.2164L34.3218 41.2143L34.3123 43.5096L31.9827 43.5127L29.7065 43.5224L27.3812 43.5344L27.3746 45.7301L20.5045 45.769L18.2449 45.7659L11.3732 45.7808L11.3731 43.3424L9.1157 43.3395L9.11664 41.1495L6.94461 41.1507L6.94656 38.9972L4.56183 38.9954L4.56008 36.8508L2.17892 36.8497L2.1767 17.1774L2.17407 14.9403L4.51959 14.9375L4.52639 12.6565L6.90156 12.6756L9.11974 12.6835L9.13813 10.473L11.2831 10.4656L11.3019 6.18193L11.3096 4.04116L13.5439 4.05207L13.5463 2.00684Z" fill="#FABB1E"/>
<path d="M36.7072 2.04102L38.8297 2.07234L38.8243 4.09259L36.6948 4.08976L36.7072 2.04102Z" fill="#002050"/>
<path d="M29.7275 4.05664L31.823 4.05678L31.8181 6.15921L29.7273 6.17639L29.7275 4.05664Z" fill="white"/>
<path d="M9.11865 32.5312L11.3246 32.5367L11.3169 34.6675L9.12869 34.6616L9.11865 32.5312Z" fill="#0040A1"/>
<path d="M20.5167 4.04492L22.7264 4.05253L22.7223 6.15457L20.4919 6.15922L20.5167 4.04492Z" fill="white"/>
<path d="M38.8373 34.6855L38.8442 36.8401L36.6256 36.8437L36.6177 34.6975L38.8373 34.6855Z" fill="#0040A1"/>
<path d="M11.3347 34.678L13.5666 34.6768L13.5671 36.8146L11.3373 36.8062L11.3347 34.678Z" fill="#0040A1"/>
<path d="M9.1197 14.9307L11.3063 14.9348L11.2946 17.1573L9.11768 17.1587L9.1197 14.9307Z" fill="#0040A1"/>
<path d="M15.8953 6.17885L18.2228 6.17871L18.219 8.27481L15.9131 8.28115L15.8953 6.17885Z" fill="white"/>
<path d="M34.3132 30.333L36.6097 30.3372L36.6141 31.4731L36.6065 32.4897L34.3206 32.4894L34.3132 30.333Z" fill="white"/>
<path d="M13.5754 36.834L15.8628 36.8401L15.8525 39.0154L13.5827 39.0046L13.5754 36.834Z" fill="#0040A1"/>
<path d="M34.3224 36.8633L36.6068 36.8634L36.6067 39.0375L34.3213 39.0581L34.3224 36.8633Z" fill="#0040A1"/>
<path d="M11.315 12.7198L13.5937 12.7188L13.5926 14.9134L11.3108 14.9195L11.315 12.7198Z" fill="#0040A1"/>
<path d="M13.5981 10.4775L15.88 10.4783L15.8895 12.7178L13.5938 12.7189L13.5981 10.4775Z" fill="#0040A1"/>
<path d="M2.17407 14.9403L4.51959 14.9375L4.53664 17.1807L2.1767 17.1774L2.17407 14.9403Z" fill="white"/>
<path d="M18.2474 43.4102L20.5062 43.411L20.5045 45.7693L18.2449 45.7662L18.2474 43.4102Z" fill="white"/>
<path d="M6.94509 32.5273L9.11867 32.5311L9.12871 34.6614L11.3169 34.6674L11.3347 34.6784L11.3373 36.8066L9.11786 36.8067L9.11867 34.6607L6.93188 34.6734L6.94509 32.5273Z" fill="white"/>
<path d="M11.3407 25.9867L15.8886 25.9844L15.8837 28.1553L13.7242 28.158L13.6166 28.1598C13.5099 28.2707 13.5638 29.9605 13.5638 30.2675L11.3372 30.2686L11.3407 25.9867Z" fill="white"/>
<path d="M34.3084 10.4697L36.6169 10.4808L36.6178 12.6972L38.8401 12.6944L38.84 14.9089L41.049 14.9083L41.0449 17.1378L38.8353 17.1161L38.8373 14.9045L36.6107 14.8884L36.6111 12.7112L34.2844 12.718L34.3084 10.4697Z" fill="#0040A1"/>
<path d="M15.8694 39.0264L29.5942 39.0597L34.3213 39.0582L34.3171 41.1977L15.873 41.2115L15.8694 39.0264Z" fill="#0040A1"/>
<path d="M18.2191 8.27441L34.2826 8.27893L34.289 10.4611L34.3085 10.4696L34.2845 12.7178L31.916 12.7253L29.6681 12.7239L29.6662 10.4545L25.1177 10.4541L15.9072 10.4618L15.9132 8.28075L18.2191 8.27441Z" fill="#0040A1"/>
<path d="M34.2891 10.4617L34.3086 10.4702L34.2846 12.7184L31.916 12.7259L29.6682 12.7245L29.6663 10.4551L34.2891 10.4617Z" fill="#689FDE"/>
<path d="M41.0448 17.1377L43.2495 17.1425L43.2718 32.5215L43.2677 34.7083L41.0563 34.7015C41.0573 34.9967 41.1055 36.7137 41.0187 36.838L40.9008 36.8535L38.8442 36.8403L38.8373 34.6858L38.8327 32.5155L41.0474 32.5005L41.0396 27.1444L41.045 23.7291L34.2806 23.7092L34.2651 25.9672L31.9219 25.9632L31.9236 23.7297L29.6562 23.7223L29.6591 21.5406L25.0822 21.5502L25.0774 19.3858L31.9203 19.3871L31.9234 21.5847L41.0345 21.5951L41.0448 17.1377Z" fill="#0040A1"/>
<path d="M43.272 32.5213L43.2678 34.7081L41.0565 34.7013C41.0574 34.9965 41.1056 36.7135 41.0188 36.8378L40.9009 36.8533L38.8443 36.8401L38.8374 34.6856L41.0482 34.6814L41.0548 32.5205L43.272 32.5213Z" fill="white"/>
<path d="M20.4831 14.9429L22.8131 14.9414L22.8188 17.1684L20.492 17.1712L20.4927 32.4931L22.76 32.4945L22.7621 30.3182L25.0758 30.3283L25.0592 32.4998L22.756 32.5059L22.7379 34.6583L18.2403 34.6567L18.2266 23.7383L9.11447 23.7361L9.11865 32.5315L6.94507 32.5277L6.94662 17.1648L9.11751 17.159L9.11582 19.3332L9.11724 21.5717L18.2054 21.5722L18.2116 17.1652L20.4788 17.1651L20.4831 14.9429Z" fill="#0040A1"/>
<path d="M22.8188 17.168L22.8214 19.3531L25.0682 19.3603L25.0774 19.3858L25.0823 21.5502L29.6591 21.5406L29.6562 23.7223L31.9236 23.7297L31.9219 25.9632L31.906 28.1754L29.6554 28.169L29.6376 28.1745L29.633 30.3305L25.0758 30.3278L22.762 30.3177L22.76 32.4941L20.4927 32.4927L20.4919 17.1708L22.8188 17.168Z" fill="white"/>
<path d="M29.6448 25.9683L31.922 25.9629L31.9061 28.1751L29.6555 28.1687L29.6448 25.9683Z" fill="#0040A1"/>
<path d="M25.0775 28.1719L29.6377 28.1745L29.6332 30.3304L25.0759 30.3278L25.0775 28.1719Z" fill="#0040A1"/>
<path d="M15.8801 10.4777L15.9073 10.4618L25.1178 10.4541L29.6662 10.4545L29.6682 12.724L31.916 12.7254L34.2846 12.7178L36.6112 12.7111L36.6108 14.8883L38.8374 14.9044L38.8355 17.116L41.045 17.1376L41.0347 21.595L31.9236 21.5846L31.9205 19.3871L25.0776 19.3857L25.0684 19.3602L22.8216 19.353L22.819 17.1679L22.8132 14.9409L20.4832 14.9423L20.4789 17.1646L18.2117 17.1646L18.2056 21.5717L9.11738 21.5712L9.11597 19.3326L9.11765 17.1584L11.2946 17.157L11.3063 14.9346L11.311 14.919L13.5928 14.9129L13.5939 12.7182L15.8897 12.7172L15.8801 10.4777Z" fill="#689FDE"/>
<path d="M11.3152 17.3519L11.3694 17.1825L13.6004 17.1719L13.5989 19.3172L11.3421 19.3211L11.3152 17.3519Z" fill="#0040A1"/>
<path d="M22.8188 17.1676L25.0841 17.1621L25.0682 19.3599L22.8214 19.3528L22.8188 17.1676Z" fill="#0040A1"/>
<path d="M15.8896 12.7178L18.2119 12.7189L18.2133 14.9114L15.9158 14.918L15.8944 13.886L15.8896 12.7178Z" fill="#0040A1"/>
<path d="M34.2846 12.7178L34.2782 14.9053L31.927 14.8967L31.9182 12.9078L31.916 12.7253L34.2846 12.7178Z" fill="#0040A1"/>
<path d="M34.282 17.1592L36.607 17.1599L36.6063 19.3613L34.2874 19.3627L34.282 17.1592Z" fill="white"/>
<path d="M13.5939 12.7189L15.8897 12.7178L15.8944 13.886L15.8865 14.9362L13.6096 14.9395L13.6004 17.1721L11.3694 17.1827L11.3152 17.3521L11.342 19.3213L9.11597 19.3332L9.11765 17.1591L11.2946 17.1576L11.3063 14.9352L11.311 14.9197L13.5928 14.9135L13.5939 12.7189Z" fill="white"/>
<path d="M25.1177 10.4541L29.6662 10.4545L29.6682 12.724L31.916 12.7254L31.9181 12.9078L31.8977 14.887L27.441 14.9041L27.4421 12.7257L25.1145 12.7201L25.1177 10.4541Z" fill="white"/>
<defs>
<linearGradient id="paint0_linear_2059_4061" x1="26.5429" y1="51.9426" x2="33.1244" y2="30.8819" gradientUnits="userSpaceOnUse">
<stop stop-color="#CA7D05"/>
<stop offset="1" stop-color="#E19D05"/>
</linearGradient>
</defs>
</svg>
